<svg xmlns="http://www.w3.org/2000/svg" viewBox="0 0 1496.36261 759.03071"><defs><style>.cls-1{fill:#e8e8e8;}</style></defs><g id="Layer_2" data-name="Layer 2"><g id="Cross"><g id="Plus"><path class="cls-1" d="M1474.02411,186.487,951.73749,616.57794q-76.87061,63.29962-153.74121,126.59931-48.55152.55656-97.10279,1.11306L545.80023,616.57794Q647.28461,533.01009,748.769,449.44229L1271.0556,19.35136c29.78443-24.52618,78.51367-24.52618,108.28443,0l94.68408,77.95688C1503.80878,121.83435,1503.80878,161.96089,1474.02411,186.487Z"/><path class="cls-1" d="M951.73749,616.57794q-76.68859,63.14948-153.377,126.299c-7.552,5.3336-24.21142,15.45259-46.998,16.11924-31.79273.93019-53.93506-17.17165-60.37622-22.86414q-72.5929-59.777-145.186-119.55406L22.33832,185.5303c-29.78443-24.52618-29.78443-64.65266,0-89.17884L117.0224,18.39458c29.77075-24.52611,78.5-24.52611,108.28442,0Z"/></g></g></g></svg>