<svg xmlns="http://www.w3.org/2000/svg" viewBox="0 0 1057.53882 1735"><defs><style>.cls-1{fill:#c79731;}.cls-2{fill:#ffc13f;}</style></defs><g id="Layer_2" data-name="Layer 2"><g id="Layer_58" data-name="Layer 58"><path class="cls-1" d="M23.79664,1536.87805Q16.17946,1546.4391,8.56227,1556c-2.86523-13.98962-4.73731-26.17554-6-36,0-.00012-3.56006-27.694,4.06152-34.48157.09619-.08545.20069-.1593.20069-.1593a1.99172,1.99172,0,0,1,.49121-.26306c5.96777-2.12793,11.5332,1.50574,12.2124,1.9646Q21.66237,1511.96923,23.79664,1536.87805Z"/><path class="cls-1" d="M1049.56227,1568q-9.99975-8.83584-20-17.67169.99975-21.206,2-42.41206c-.64453-9.09457,3.8667-16.95033,10-18.84981,6.12744-1.89761,11.3623,2.92745,12,3.53434a118.45932,118.45932,0,0,1,3,15.31547C1059.83278,1533.40257,1054.22194,1554.97633,1049.56227,1568Z"/><path class="cls-1" d="M530.7078,1353.6713c-288.92511,0-523.14553,85.36325-523.14553,190.66435C7.56227,1649.637,241.78269,1735,530.7078,1735s523.14552-85.363,523.14552-190.66435C1053.85332,1439.03455,819.6329,1353.6713,530.7078,1353.6713Zm0,310.90911c-182.21392,0-329.92811-53.83552-329.92811-120.24476,0-66.40957,147.71419-120.24476,329.92811-120.24476s329.9281,53.83519,329.9281,120.24476C860.6359,1610.74489,712.92172,1664.58041,530.7078,1664.58041Z"/><path class="cls-2" d="M529.41687,1299.19577c-291.13448,0-527.14539,85.36325-527.14539,190.66435s236.01091,190.66435,527.14539,190.66435,527.1454-85.36325,527.1454-190.66435S820.55136,1299.19577,529.41687,1299.19577Zm0,310.90912c-183.60716,0-332.4508-53.83553-332.4508-120.24477,0-66.40957,148.84364-120.24476,332.4508-120.24476s332.45081,53.83519,332.45081,120.24476C861.86768,1556.26936,713.024,1610.10489,529.41687,1610.10489Z"/><path class="cls-1" d="M473.63307,1427.62085q12.05493-5.72168,24.11035-11.44385,19.10668,9.2547,38.2124,18.51,5.30348,12.65643,10.60645,25.313-.99975.50005-2,1-17.00025-2.00005-34-4Q492.09792,1442.31037,473.63307,1427.62085Z"/><path class="cls-1" d="M977.30583,268.85505C969.10263,254.89217,816.66722,5.04442,539.5437,4.54584c-262.42982-.4722-413.28025,223.06484-423.996,239.53022C-57.68075,510.2351,93.46275,848.85842,154.09276,984.6925c100.17664,224.43557,265.43443,373.44223,305.86161,408.70409,33.69469,29.3901,63.52708,52.03158,85.09577,67.60314,18.45921-13.81484,44.57045-34.21092,74.337-60.57086,30.16579-26.71351,191.80325-172.65035,294.59465-396.46382C987.6667,843.52607,1131.25229,530.8898,977.30583,268.85505ZM545.05014,825.00569c-162.70084,0-294.59465-131.89448-294.59465-294.59465S382.3493,235.8164,545.05014,235.8164,839.64478,367.71088,839.64478,530.411,707.751,825.00569,545.05014,825.00569Z"/><path class="cls-2" d="M942.26718,264.31C934.064,250.34708,781.62856.49933,504.505.00075,242.07523-.47145,91.2248,223.06559,80.509,239.531-92.7194,505.69,58.4241,844.31333,119.05411,980.14741,219.23075,1204.583,384.48854,1353.58964,424.91572,1388.8515c33.69469,29.3901,63.52708,52.03157,85.09577,67.60314,18.45921-13.81484,44.57045-34.21093,74.337-60.57087,30.16579-26.7135,191.80325-172.65034,294.59464-396.46381C952.62805,838.981,1096.21363,526.34471,942.26718,264.31ZM489.01149,790.46059c-162.70084,0-294.59465-131.89447-294.59465-294.59464S326.31065,201.27131,489.01149,201.27131,783.60613,333.16578,783.60613,495.866,651.71233,790.46059,489.01149,790.46059Z"/></g></g></svg>