<svg xmlns="http://www.w3.org/2000/svg" viewBox="0 0 1084.50017 1704.25914"><defs><style>.cls-1{fill:#a5742f;}.cls-2{fill:#daa61a;}</style></defs><g id="Layer_2" data-name="Layer 2"><g id="Layer_58" data-name="Layer 58"><g id="Layer_72_copy" data-name="Layer 72 copy"><path class="cls-1" d="M50.758,1538.333q-7.61718,9.561-15.23437,19.12195c-2.86524-13.98963-4.73731-26.17554-6-36,0-.00013-3.56006-27.694,4.06152-34.48157.09619-.08545.20068-.1593.20068-.1593a1.99178,1.99178,0,0,1,.49122-.26306c5.96777-2.12793,11.5332,1.50573,12.2124,1.9646Q48.62372,1513.42415,50.758,1538.333Z"/><path class="cls-1" d="M1076.52362,1560.45491q-9.99977-7.5-20-15,.99975-18,2-36c-.64453-7.71961,3.8667-14.3877,10-16,6.12744-1.61072,11.3623,2.48486,12,3a87.23864,87.23864,0,0,1,3,13C1086.79413,1531.08809,1081.18329,1549.40022,1076.52362,1560.45491Z"/><path class="cls-1" d="M557.66915,1391.35173c-288.92511,0-523.14553,70.04664-523.14553,156.45371s234.22042,156.4537,523.14553,156.4537,523.14552-70.04648,523.14552-156.4537S846.59425,1391.35173,557.66915,1391.35173Zm0,255.12311c-182.21393,0-329.92811-44.17588-329.92811-98.6694,0-54.49379,147.71418-98.66941,329.92811-98.66941s329.9281,44.17562,329.9281,98.66941C887.59725,1602.299,739.88307,1646.47484,557.66915,1646.47484Z"/><path class="cls-2" d="M556.37822,1346.65068c-291.13448,0-527.14539,70.04663-527.14539,156.4537s236.01091,156.4537,527.14539,156.4537,527.1454-70.04664,527.1454-156.4537S847.5127,1346.65068,556.37822,1346.65068Zm0,255.1231c-183.60716,0-332.4508-44.17588-332.4508-98.6694,0-54.49379,148.84364-98.66941,332.4508-98.66941S888.829,1448.61059,888.829,1503.10438C888.829,1557.5979,739.98539,1601.77378,556.37822,1601.77378Z"/></g><path class="cls-1" d="M942.26718,264.31C934.064,250.34708,781.62856.49933,504.505.00075,242.07523-.47145,91.2248,223.06559,80.509,239.531-92.7194,505.69,58.4241,844.31333,119.05411,980.14741,219.23075,1204.583,384.48854,1353.58964,424.91572,1388.8515c33.69469,29.3901,63.52708,52.03157,85.09577,67.60314,18.45921-13.81484,44.57045-34.21093,74.337-60.57087,30.16579-26.7135,191.80325-172.65034,294.59464-396.46381C952.62805,838.981,1096.21363,526.34471,942.26718,264.31ZM510.01149,820.46059c-162.70084,0-294.59465-131.89447-294.59465-294.59464S347.31065,231.27131,510.01149,231.27131,804.60613,363.16578,804.60613,525.866,672.71233,820.46059,510.01149,820.46059Z"/><path class="cls-2" d="M974.22852,285.76487C966.02532,271.802,813.58991,21.95424,536.46639,21.45565c-262.42981-.4722-413.28024,223.06484-423.996,239.53023-173.22841,266.159-22.08491,604.78235,38.5451,740.61644,100.17664,224.43556,265.43443,373.44222,305.86161,408.70409,33.69469,29.39009,63.52707,52.03157,85.09576,67.60313,18.45922-13.81484,44.57046-34.21092,74.337-60.57086,30.16578-26.7135,191.80325-172.65035,294.59464-396.46382C984.5894,860.43588,1128.175,547.79961,974.22852,285.76487ZM541.97283,841.9155c-162.70084,0-294.59464-131.89448-294.59464-294.59464S379.272,252.72621,541.97283,252.72621,836.56748,384.62069,836.56748,547.32086,704.67367,841.9155,541.97283,841.9155Z"/></g></g></svg>