<svg xmlns="http://www.w3.org/2000/svg" viewBox="0 0 1653.07045 1586.9548"><defs><style>.cls-1{fill:#c79731;}.cls-2{fill:#ffc13f;}.cls-3{fill:#b0ada7;}.cls-4{fill:#cecbc4;}.cls-5{fill:#fffbf0;}.cls-6{fill:#f4f0e6;}.cls-7{fill:none;}</style></defs><g id="Layer_2" data-name="Layer 2"><g id="docs"><rect class="cls-1" y="205.48975" width="1653.07045" height="1287.71293" rx="95.33108"/><rect class="cls-2" x="39.03523" y="235.89751" width="1575" height="1226.89741" rx="90.82883"/><rect class="cls-3" x="78.58634" y="186.18785" width="1484.86812" height="1236.70075" rx="88.54327"/><rect class="cls-4" x="78.58634" y="111.73763" width="1484.86812" height="1236.70075" rx="88.54327"/><path class="cls-5" d="M179.232,71.75511A74.79232,74.79232,0,0,1,198.5339,26.25776C216.7682,6.42605,239.717,3.40541,245.41,2.81973Q535.62788,53.83158,825.84587,104.8441,1114.685,52.45287,1403.52437.06231c6.09647-.25244,31.29761-.60251,52.39089,17.9232,30.96959,27.19919,23.86013,69.42076,23.438,71.6928V1147.14707c-.69777,17.74816-4.55081,47.67178-24.81674,73.0715-30.20635,37.85791-79.58569,43.99545-102.02436,46.87606-89.03587,11.43089-276.614,38.69335-526.66632,71.6928l-559.7553-70.31409c-12.9051-4.82817-42.86582-18.05784-66.178-49.63348-31.46591-42.61943-28.67206-88.66409-27.57416-100.64565Q175.78527,594.97465,179.232,71.75511Z"/><path class="cls-6" d="M1479.35329,89.67831V1147.14707c-.70315,17.74413-4.5498,47.67581-24.81674,73.0715-30.20736,37.85926-79.579,43.99478-102.02436,46.87606-89.037,11.42954-276.61012,38.68662-526.66632,71.6928-.92362-.11041-1.83379-.23427-2.75741-.34468V104.36141c.92362.16561,1.83379.31708,2.75741.48269q288.846-52.38417,577.6785-104.78179c6.09378-.2484,31.2966-.60655,52.39089,17.9232C1486.881,45.18739,1479.78077,87.40358,1479.35329,89.67831Z"/><polyline class="cls-7" points="823.088 1586.955 823.088 1338.443 823.088 104.362 823.088 67.619"/><polygon class="cls-4" points="738.725 824.12 252.069 736.141 252.566 652.601 739.221 740.58 738.725 824.12"/><polygon class="cls-4" points="738.725 999.216 252.069 911.236 252.566 827.697 739.221 915.676 738.725 999.216"/><polygon class="cls-4" points="738.725 489.12 252.069 401.141 252.566 317.601 739.221 405.58 738.725 489.12"/><polygon class="cls-4" points="738.725 300.12 252.069 212.141 252.566 128.601 739.221 216.58 738.725 300.12"/><polygon class="cls-4" points="738.725 664.216 252.069 576.236 252.566 492.697 739.221 580.676 738.725 664.216"/><polygon class="cls-4" points="738.725 1175.69 252.069 1087.711 252.566 1004.171 739.221 1092.15 738.725 1175.69"/><polygon class="cls-4" points="1383.96 491.292 897.304 579.271 897.801 662.811 1384.457 574.832 1383.96 491.292"/><polygon class="cls-4" points="1383.96 316.196 897.304 404.175 897.801 487.715 1384.457 399.736 1383.96 316.196"/><polygon class="cls-4" points="1383.96 139.722 897.304 227.701 897.801 311.24 1384.457 223.261 1383.96 139.722"/><polygon class="cls-4" points="1383.96 1004.171 897.304 1092.15 897.801 1175.69 1384.457 1087.711 1383.96 1004.171"/><polygon class="cls-4" points="1383.96 829.075 897.304 917.055 897.801 1000.594 1384.457 912.615 1383.96 829.075"/><polygon class="cls-4" points="1383.96 652.601 897.304 740.58 897.801 824.12 1384.457 736.141 1383.96 652.601"/></g></g></svg>