<svg xmlns="http://www.w3.org/2000/svg" viewBox="0 0 1765.15851 1585.18458"><defs><style>.cls-1{fill:#a5742f;}.cls-2{fill:#b2841d;}.cls-3{fill:#daa61a;}.cls-4{fill:none;stroke-width:30px;}.cls-4,.cls-6{stroke:#f4f0e6;stroke-miterlimit:10;}.cls-5,.cls-6{fill:#f7f7f7;}.cls-6{stroke-width:10px;}</style></defs><g id="Layer_2" data-name="Layer 2"><g id="wallet"><path class="cls-1" d="M1563.15851,1187.94176c11.2384,213.42139,2.8501,258.69678-26,301-28.8324,42.27735-66.79895,67.31885-95,82-12.21216,6.35743-22.69812,6.93164-33,9a272.245,272.245,0,0,1-101,1q-111-14.49975-222-29c-424.49268-66.03759-743.80615-126.38525-879-159-33.64282-8.11621-96.957-24.42382-145.26489-79.00586C13.1004,1258.805,2.98615,1191.03112.58234,1152.99889v-906.085c0-117.14062,93.72192-195.36426,209.324-174.709L1334.04144,273.058c115.60242,20.65479,209.32422,132.36963,209.32422,249.51026,0,68.95459,3.66907,88.77441,0,236.45752C1542.296,802.08288,1543.3299,811.39147,1563.15851,1187.94176Z"/><path class="cls-2" d="M1571.36566,1139.38073v229.272c0,53.917-13.95544,86.34961-29.2124,107.11133a147.65705,147.65705,0,0,1-30.782,30.80615c-54.17005,41.209-122.07141,38.83106-149.21277,36.37158-568.33423-83.67724-987.10327-161.22754-1124.2522-200.43261C199.53009,1331.53893,137.272,1310.41,89.89362,1253.9359c-37.88086-45.15332-61.31128-102.3667-61.31128-160.937v-906.085c0-117.14062,93.72192-195.36474,209.324-174.70947L1362.04144,213.058c115.60242,20.65479,209.32422,132.36963,209.32422,249.51026v676.8125Z"/><path class="cls-3" d="M1570.15851,888.92238v229.27218c0,117.14067-95.26171,212.10961-212.7635,212.10961H214.79c-117.5018,0-212.7635-94.96894-212.7635-212.10961V212.10961C2.02647,94.96894,97.28817,0,214.79,0H1357.395c117.50179,0,212.7635,94.96894,212.7635,212.10961V448.56707"/><path class="cls-4" d="M1.02647,977.98442q47.16563.51621,94.33125,1.03267,25.10428,25.0425,50.20856,50.08475l136.93246,1.549"/><path class="cls-4" d="M0,819.96649H77.35857q15.01842,17.55535,30.037,35.111h63.05794"/><path class="cls-4" d="M1.02647,713.16528q54.591-1.29072,109.1821-2.58169l52.10964-51.11743H280.43339"/><circle class="cls-4" cx="344.68475" cy="1030.39269" r="73.06177"/><path class="cls-4" d="M1.02647,1117.825q22.91321.49373,45.82641.9877,12.19575,23.95185,24.39148,47.90346l66.52221,1.48155"/><circle class="cls-4" cx="199.95258" cy="1181.28367" r="73.06177"/><circle class="cls-4" cx="232.63948" cy="852.23759" r="73.06177"/><circle class="cls-4" cx="343.65207" cy="659.20799" r="73.06177"/><path class="cls-4" d="M1.02647,367.74906q47.16563-.51621,94.33125-1.03268,25.10428-25.0425,50.20856-50.08474l136.93246-1.549"/><path class="cls-4" d="M1.02647,504.21114H77.91918q14.928-17.55536,29.8561-35.111h62.6782"/><circle class="cls-4" cx="344.68475" cy="315.34079" r="73.06177"/><path class="cls-4" d="M1,200.43457q26.18127-.51621,52.36253-1.03268,13.93518-25.0425,27.87037-50.08474l76.01012-1.549"/><circle class="cls-4" cx="218.42903" cy="148.0263" r="73.06177"/><circle class="cls-4" cx="232.63948" cy="471.94003" r="73.06177"/><path class="cls-5" d="M1572.15851,888.92238V448.56707h-134.588c-58.41029,0-111.27918,24.64528-149.55544,64.48262-38.26644,39.84785-61.94013,94.88676-61.94013,155.695,0,121.606,94.68494,220.17765,211.49557,220.17765Z"/><rect class="cls-3" x="1274.41027" y="495.56205" width="490.74824" height="348.56125" rx="174.28045"/><path class="cls-6" d="M1082.18479,1069.94176q-271.1543-.68218-542.303-1.25121c-.24441-81.14333,24.20778-125.64935,47.09907-151.41733,30.31248-34.11647,58.953-36.68105,93.05384-72.0116,41.06656-42.54691,54.60358-96.243,59.614-135.2633-41.211,6.96814-75.42294-24.373-75.51181-55.84647-.08332-29.188,29.18486-58.96722,67.54624-57.34626a134.61688,134.61688,0,1,1,212.73735-109.553c0,22.281-7.499,44.42756-7.499,44.4286-12.20943,33.80923-35.684,53.27148-46.28251,61.03916,39.50567-4.22025,71.90676,27.65348,70.72914,61.43146-1.12207,32.25389-32.67883,61.0284-70.307,57.09838,1.01653,37.52018,8.75435,92.381,47.349,133.40141,36.47831,38.77208,73.48987,36.44879,106.74085,73.8419C1066.187,942.14827,1088.97274,985.35689,1082.18479,1069.94176Z"/></g></g></svg>