<svg xmlns="http://www.w3.org/2000/svg" viewBox="0 0 1280.38913 1740.27276"><defs><style>.cls-1{fill:#a5742f;}.cls-2{fill:#daa61a;}</style></defs><g id="Layer_2" data-name="Layer 2"><g id="Question"><path class="cls-1" d="M74.97983,445.74786a84.75242,84.75242,0,0,1-14.79234-25.35829,85.88869,85.88869,0,0,1-4.22638-42.26382A667.34921,667.34921,0,0,1,170.07342,230.20238C384.33789,21.61557,668.93818,31.73268,706.82394,33.67562,799.34,38.421,1017.21537,49.59678,1161.16,228.08919c107.89244,133.78831,157.92491,341.335,84.52764,486.03393-53.4788,105.43048-184.08287,200.358-204.97953,215.54548-66.82553,48.56831-135.9242,86.776-175.39485,173.28166a312.3876,312.3876,0,0,0-20.45915,63.3978c-4.35743,22.31645-2.24321,26.16621-4.89914,33.809-6.34576,18.26445-33.82757,40.63043-200.75315,42.26382-20.83371.2043-190.279,1.06175-200.75314-38.03744-.79245-2.95723-3.02946-14.93267-4.77429-26.89366-2.1297-14.59835-3.15018-26.59752-3.67847-34.38888,0,0-4.38477-64.45542,8.45276-122.56508,22.53056-101.9852,107.99665-180.18048,137.35741-204.97952C676.42,730.57258,728.59455,757.02977,801.91753,667.63292c22.00175-26.82453,62.96855-78.27371,52.82978-139.47061-6.42315-38.77-30.53809-64.04991-38.03744-71.84849-75.25457-78.25411-215.78074-39.5336-228.22463-35.92425-28.753,8.34029-78.21386,32.14258-126.79146,73.96168a431.64783,431.64783,0,0,0-88.754,105.65955c-3.32869,4.59475-14.32595,18.52138-33.81106,23.2451-32.77458,7.94614-58.007-17.7929-59.16935-19.01871Q177.46986,524.99252,74.97983,445.74786Z"/><rect class="cls-1" x="438.44868" y="1338.47924" width="405.73267" height="401.79352" rx="59.87511"/><path class="cls-2" d="M19.97983,412.74786A84.75242,84.75242,0,0,1,5.18749,387.38957,85.88869,85.88869,0,0,1,.96111,345.12575,667.34921,667.34921,0,0,1,115.07342,197.20238C329.33789-11.38443,613.93818-1.26732,651.82394.67562,744.34,5.421,962.21537,16.59678,1106.16,195.08919c107.89244,133.78831,157.92491,341.335,84.52764,486.03393-53.4788,105.43048-184.08287,200.358-204.97953,215.54548-66.82553,48.56831-135.9242,86.776-175.39485,173.28166a312.3876,312.3876,0,0,0-20.45915,63.3978c-4.35743,22.31645-2.24321,26.16621-4.89914,33.809-6.34576,18.26445-33.82757,40.63043-200.75315,42.26382-20.83371.2043-190.279,1.06175-200.75314-38.03744-.79245-2.95723-3.02946-14.93267-4.77429-26.89366-2.1297-14.59835-3.15018-26.59752-3.67847-34.38888,0,0-4.38477-64.45542,8.45276-122.56508,22.53056-101.9852,107.99665-180.18048,137.35741-204.97952C621.42,697.57258,673.59455,724.02977,746.91753,634.63292c22.00175-26.82453,62.96855-78.27371,52.82978-139.47061-6.42315-38.77-30.53809-64.04991-38.03744-71.84849-75.25457-78.25411-215.78074-39.5336-228.22463-35.92425-28.753,8.34029-78.21386,32.14258-126.79146,73.96168a431.64783,431.64783,0,0,0-88.754,105.65955c-3.32869,4.59475-14.32595,18.52138-33.81106,23.2451-32.77458,7.94614-58.007-17.7929-59.16935-19.01871Q122.46985,491.99252,19.97983,412.74786Z"/><rect class="cls-2" x="383.44868" y="1305.47924" width="405.73267" height="401.79352" rx="59.87511"/></g></g></svg>