<svg xmlns="http://www.w3.org/2000/svg" viewBox="0 0 1125.03998 1089.32714"><defs><style>.cls-1{fill:#e8e8e8;}</style></defs><g id="Layer_2" data-name="Layer 2"><g id="Layer_23" data-name="Layer 23"><path class="cls-1" d="M1102.07993,99.35008c-236.57031,265.27-447.08984,630.08008-572.1001,928.77-.01611.038-.50879,1.24988-1.24121,2.96924-6.65234,15.62048-11.60351,27.24634-21.03906,36.402a55.41305,55.41305,0,0,1-14.03955,9.84875,169.48792,169.48792,0,0,1-39.18994,10.27c-65.82032,9.17993-135.5-18.82995-156.18018-74.8999-6.87012-23.27-109.85986-178.58008-112.5-178.07007-45.56006-80.23-197.98-183.26-185.00976-238,10.83984-43.96,148.9497-51.13,215.38964-12.23,77.16016,41.66992,174.5,168.61,196.41016,232.51,21.12988-74.22,384.46-877.23,667.21973-813.30005C1152.26987,15.73021,1120.28989,76.29,1102.07993,99.35008Z"/></g></g></svg>