<svg xmlns="http://www.w3.org/2000/svg" viewBox="0 0 1151.96624 1786.47171"><defs><style>.cls-1{fill:#e8e8e8;}</style></defs><g id="Layer_2" data-name="Layer 2"><g id="Door"><path class="cls-1" d="M1151.96624,58.23238V1786.47171h-100.412V152.70615c0-29.26027-22.27555-52.98384-49.75-52.98384H147.69794a47.29489,47.29489,0,0,0-4.86.24965c-25.194,2.60184-44.89,25.22025-44.89,52.73419V1786.47171H0V58.23238C0,26.07216,24.481,0,54.67821,0H1097.288C1127.48527,0,1151.96624,26.07216,1151.96624,58.23238Z"/><path class="cls-1" d="M283.20905,949.04552v-5.90837c0-9.75656,7.64913-17.66587,17.0854-17.66587h34.4652c-6.3569-16.36275-20.75015-27.78756-37.50389-27.78756-22.62778,0-40.97391,20.85193-40.97391,46.57724,0,25.71629,18.34613,46.56791,40.97391,46.56791,15.473,0,28.93542-9.74249,35.91152-24.11748H300.29445C290.85818,966.71139,283.20905,958.80208,283.20905,949.04552Z"/><path class="cls-1" d="M950.99523,147.974H197.27515c-27.04634,0-48.9713,22.66986-48.9713,50.6351V1784.23585H999.96624V198.60908C999.96624,170.64384,978.04128,147.974,950.99523,147.974ZM477.94177,949.04552c0,9.75656-7.64913,17.66587-17.08539,17.66587H359.22726c-8.12226,28.84355-31.89507,49.73072-59.973,49.73072-34.78025,0-62.96875-32.04-62.96875-71.56372s28.1885-71.56371,62.96875-71.56371c28.85809,0,53.16073,22.06709,60.606,52.1566H460.85638c9.43626,0,17.08539,7.90931,17.08539,17.66587Z"/></g></g></svg>