<svg xmlns="http://www.w3.org/2000/svg" viewBox="0 0 2258.77035 2262.54545"><defs><style>.cls-1{fill:#efaa30;}.cls-2{fill:#ffc13f;}.cls-3{fill:#ffcb5c;}</style></defs><g id="Layer_2" data-name="Layer 2"><g id="Coin"><g id="Coin-2" data-name="Coin"><ellipse class="cls-1" cx="1135.04783" cy="1118.05986" rx="1123.72252" ry="1118.05986"/><circle class="cls-2" cx="1123.72252" cy="1138.82293" r="1123.72252"/><ellipse class="cls-1" cx="1149.09943" cy="1104.07518" rx="960.34425" ry="937.00202" transform="translate(-398.08746 722.46774) rotate(-30)"/><ellipse class="cls-2" cx="1146.63588" cy="1104.07518" rx="918.47011" ry="915.01331" transform="translate(-440.50725 982.69755) rotate(-39.54346)"/><path class="cls-1" d="M1451.98982,1715.46531c-11.47054-.27064-20.6513-6.4725-30.03194-11.93143-93.5679-54.45072-186.96574-109.19676-280.68551-163.38263-34.91506-20.18681-52.66915-49.42753-52.20087-90.01632.36949-32.0275.154-64.06309.026-96.09438-.03524-8.81726.08531-16.90053,9.24682-22.17332,42.33861-24.36659,84.49284-49.05556,130.36829-75.75652,0,38.68729.53847,73.49205-.13895,108.27292-.81145,41.66306,17.10463,71.37743,53.1012,91.73391q68.12414,38.52485,135.17246,78.95269c38.42151,23.26892,75.37327,24.25116,113.95521-.09374,44.12444-27.842,89.23216-54.13406,134.21249-80.58635,33.97957-19.98293,50.60079-48.72294,49.99705-88.6518-.86209-57.0191-.57435-114.06417-.09529-171.09235.31171-37.10551-15.43714-64.58849-46.9-83.15445q-73.44608-43.33993-147.23875-86.088c-35.68714-20.70551-70.23607-18.493-105.88562,2.45374-167.87422,98.63847-336.82281,195.4516-504.04314,295.18563-48.25624,28.78115-90.00627,31.05442-138.684.61771-85.81251-53.656-174.32-103.00284-262.113-153.42877-36.71053-21.08547-53.858-51.28388-53.515-93.91q1.29165-160.53933-.03695-321.09427c-.37431-41.64762,15.09779-70.57973,51.97544-91.5427,94.10444-53.49334,186.9025-109.29688,280.39149-163.88611,11.90477-6.95131,24.81211-12.17452,37.255-18.19834h42.07227c19.48638,3.2104,36.4079,12.55106,53.03814,22.49837q125.44259,75.033,251.73907,148.60931c38.312,22.3403,59.41385,53.26221,56.90517,99.44129-1.73568,31.95165-.57278,64.07361-.25714,96.11213.15464,15.69105-5.85358,26.34141-19.37479,34.49677-32.72073,19.73572-65.94613,38.58055-99.16375,57.42452-21.92755,12.43927-28.44142,8.21108-29.08311-18.01562-.65-26.56178-.0846-53.1433-.23246-79.71606-.23218-41.73645-17.13031-73.239-54.13367-94.29659-45.39095-25.83068-88.8579-54.93912-133.96808-81.29088-35.41313-20.68708-70.46266-20.99685-106.08143.16225-40.8787,24.28375-81.30016,49.47285-123.48352,71.39081-43.23308,22.46342-64.44611,55.0229-61.58406,105.5092,2.87065,50.63772,2.02934,101.61835.17956,152.35168-1.42286,39.02315,15.59109,66.24157,46.70614,85.69853,46.93271,29.3482,94.66218,57.41217,142.17,85.8273,34.89149,20.86906,68.72522,20.09578,103.42245-1.58707,170.62175-106.6242,348.41157-200.96055,520.547-305.0027,39.71688-24.00571,78.20009-24.15462,118.7633.28363,90.14034,54.30731,181.61905,106.364,272.56178,159.32154,29.56766,17.21764,53.19493,38.88679,49.94969,77.694q.01541,184.4092.00927,368.65782c3.82288,38.46738-19.07155,61.00967-48.42907,78.30278q-130.58607,76.92185-261.9094,152.5835c-17.51934,10.09118-34.32274,21.83971-56.122,19.22718C1477.573,1716.37156,1464.62205,1719.29338,1451.98982,1715.46531Z"/><path class="cls-3" d="M1429.40115,1710.87964c-11.47054-.27064-20.65131-6.47251-30.03195-11.93143-93.5679-54.45072-186.96574-109.19676-280.6855-163.38263-34.91507-20.18681-52.66916-49.42753-52.20087-90.01632.36949-32.0275.154-64.06309.026-96.09438-.03524-8.81726.08531-16.90053,9.24682-22.17333,42.33861-24.36658,84.49284-49.05555,130.36829-75.75651,0,38.68729.53847,73.49205-.139,108.27292-.81145,41.66306,17.10463,71.37743,53.1012,91.73391q68.12414,38.52484,135.17246,78.95269c38.42151,23.26892,75.37327,24.25116,113.95521-.09374,44.12444-27.842,89.23216-54.13406,134.21249-80.58635,33.97957-19.98293,50.6008-48.72294,49.99706-88.6518-.8621-57.0191-.57435-114.06417-.0953-171.09235.31171-37.10551-15.43714-64.58849-46.9-83.15445q-73.44608-43.33993-147.23874-86.088c-35.68715-20.70551-70.23608-18.493-105.88563,2.45374-167.87421,98.63847-336.82281,195.4516-504.04314,295.18563-48.25624,28.78115-90.00627,31.05442-138.684.61771-85.81251-53.656-174.32-103.00284-262.113-153.42878-36.71054-21.08546-53.858-51.28387-53.515-93.91q1.29163-160.53934-.037-321.09427c-.37431-41.64762,15.09779-70.57973,51.97544-91.5427,94.10444-53.49334,186.90251-109.29688,280.3915-163.88611,11.90476-6.95131,24.8121-12.17452,37.25494-18.19834H845.6057c19.48638,3.2104,36.4079,12.55106,53.03815,22.49837q125.44258,75.033,251.73906,148.60931c38.312,22.3403,59.41386,53.26221,56.90517,99.44129-1.73567,31.95165-.57278,64.07361-.25714,96.11213.15464,15.69105-5.85357,26.34141-19.37478,34.49677-32.72074,19.73572-65.94614,38.58055-99.16376,57.42452-21.92755,12.43927-28.44142,8.21107-29.08311-18.01562-.65-26.56178-.08459-53.1433-.23246-79.71607-.23218-41.73644-17.13031-73.239-54.13367-94.29658-45.39094-25.83068-88.8579-54.93912-133.96808-81.29088-35.41313-20.68709-70.46266-20.99685-106.08143.16224C724.115,686.724,683.6935,711.91307,641.51013,733.831c-43.23308,22.46342-64.44611,55.0229-61.58406,105.5092,2.87065,50.63771,2.02935,101.61835.17956,152.35168-1.42286,39.02315,15.59109,66.24157,46.70614,85.69852,46.93271,29.34821,94.66218,57.41218,142.17,85.82731,34.89149,20.86906,68.72523,20.09578,103.42245-1.58707,170.62175-106.6242,348.41158-200.96055,520.547-305.0027,39.71687-24.00571,78.20009-24.15462,118.76329.28363,90.14034,54.30731,181.61905,106.364,272.56178,159.32153,29.56766,17.21765,53.19493,38.8868,49.94969,77.694q.01542,184.4092.00928,368.65782c3.82287,38.46738-19.07156,61.00967-48.42908,78.30278q-130.58605,76.92184-261.90939,152.5835c-17.51935,10.09118-34.32275,21.83971-56.122,19.22718C1454.9843,1711.78589,1442.03337,1714.7077,1429.40115,1710.87964Z"/></g></g></g></svg>