<svg xmlns="http://www.w3.org/2000/svg" viewBox="0 0 2031.34883 1354.9932"><defs><style>.cls-1,.cls-3{fill:#efaa30;}.cls-2{fill:#ffc13f;}.cls-3{font-size:324.95978px;font-family:Montserrat-ExtraBold, Montserrat;font-weight:800;}</style></defs><g id="Layer_2" data-name="Layer 2"><g id="Trophy_copy" data-name="Trophy copy"><rect class="cls-1" x="697.07325" y="513.40258" width="634.68417" height="84.62456" rx="22.14182"/><rect class="cls-1" x="697.07325" y="682.65169" width="634.68417" height="84.62456" rx="22.14182"/><rect class="cls-2" x="697.07325" y="598.02714" width="634.68417" height="84.62456" rx="22.14182"/><rect class="cls-1" x="697.07325" y="851.9008" width="634.68417" height="84.62456" rx="22.14182"/><rect class="cls-2" x="697.07325" y="767.27625" width="634.68417" height="84.62456" rx="22.14182"/><rect class="cls-1" x="697.07325" y="1021.14992" width="634.68417" height="84.62456" rx="22.14182"/><rect class="cls-2" x="697.07325" y="936.52536" width="634.68417" height="84.62456" rx="22.14182"/><rect class="cls-1" x="697.07325" y="1190.39903" width="634.68417" height="84.62456" rx="22.14182"/><rect class="cls-2" x="697.07325" y="1105.77447" width="634.68417" height="84.62456" rx="22.14182"/><rect class="cls-1" x="1396.66466" y="845.61297" width="634.68417" height="84.62456" rx="22.14182"/><rect class="cls-1" x="1396.66466" y="1014.86209" width="634.68417" height="84.62456" rx="22.14182"/><rect class="cls-2" x="1396.66466" y="930.23753" width="634.68417" height="84.62456" rx="22.14182"/><rect class="cls-1" x="1396.66466" y="677.61297" width="634.68417" height="84.62456" rx="22.14182"/><rect class="cls-2" x="1396.66466" y="762.23753" width="634.68417" height="84.62456" rx="22.14182"/><rect class="cls-1" x="1396.66466" y="1184.1112" width="634.68417" height="84.62456" rx="22.14182"/><rect class="cls-2" x="1396.66466" y="1099.48664" width="634.68417" height="84.62456" rx="22.14182"/><rect class="cls-1" y="689" width="634.68417" height="84.62456" rx="22.14182"/><rect class="cls-1" y="858.24911" width="634.68417" height="84.62456" rx="22.14182"/><rect class="cls-2" y="773.62456" width="634.68417" height="84.62456" rx="22.14182"/><rect class="cls-1" x="697" y="343" width="634.68417" height="84.62456" rx="22.14182"/><rect class="cls-2" x="697" y="427.62456" width="634.68417" height="84.62456" rx="22.14182"/><rect class="cls-1" x="697.07325" y="170.40258" width="634.68417" height="84.62456" rx="22.14182"/><rect class="cls-2" x="697.07325" y="255.02714" width="634.68417" height="84.62456" rx="22.14182"/><rect class="cls-1" x="697" width="634.68417" height="84.62456" rx="22.14182"/><rect class="cls-2" x="697" y="84.62456" width="634.68417" height="84.62456" rx="22.14182"/><rect class="cls-1" y="1027.49822" width="634.68417" height="84.62456" rx="22.14182"/><rect class="cls-2" y="942.87367" width="634.68417" height="84.62456" rx="22.14182"/><rect class="cls-1" y="357" width="634.68417" height="84.62456" rx="22.14182"/><rect class="cls-1" y="526.24911" width="634.68417" height="84.62456" rx="22.14182"/><rect class="cls-2" y="441.62456" width="634.68417" height="84.62456" rx="22.14182"/><rect class="cls-2" y="610.87367" width="634.68417" height="84.62456" rx="22.14182"/><rect class="cls-1" y="1196.74734" width="634.68417" height="84.62456" rx="22.14182"/><rect class="cls-2" y="1112.12278" width="634.68417" height="84.62456" rx="22.14182"/><circle class="cls-1" cx="1334.42485" cy="1033.68434" r="321.30886"/><circle class="cls-2" cx="1334.42485" cy="1033.68434" r="265.774"/><text class="cls-3" transform="translate(1232.36934 1143.47969)">$</text></g></g></svg>