<svg xmlns="http://www.w3.org/2000/svg" viewBox="0 0 1332.99583 1279.10743"><defs><style>.cls-1,.cls-2{fill:none;stroke:#e8e8e8;stroke-linecap:round;stroke-miterlimit:10;}.cls-1{stroke-width:80px;}.cls-2{stroke-width:50px;}</style></defs><g id="Layer_2" data-name="Layer 2"><g id="Layer_63" data-name="Layer 63"><path class="cls-1" d="M772.073,525.65692c-60.79638-61.36719-207.915-138.687-330-48-127.79394,94.92773-229.51709,207.999-342,338-16.41259,21.38574-46.37451,66.48-56,131-30.13281,180.91992,112.90674,283.82519,232.00245,291.99755,94.47607,5.69532,161.3081-43.936,178.99755-57.99755q111.50025-102.99976,223-206"/><path class="cls-1" d="M558.16765,750.60762c60.43364,61.72445,207.094,139.91,329.71136,49.94414,128.35122-94.17288,230.739-206.64266,343.98619-335.97842,16.53836-21.28864,46.76553-66.2055,56.77112-130.66767C1319.83493,153.16649,1177.40438,49.42,1058.35891,40.54579c-94.44086-6.252-161.56426,42.98454-179.33628,56.94156Q766.91725,199.82815,654.81237,302.16944"/><line class="cls-2" x1="291.07297" y1="151.65692" x2="401.07297" y2="261.65692"/><line class="cls-2" x1="211.07405" y1="335.47787" x2="335.56273" y2="341.79965"/><line class="cls-2" x1="457.2661" y1="61.69627" x2="483.37068" y2="183.58125"/><line class="cls-2" x1="1101.70134" y1="1074.1247" x2="996.83321" y2="959.22181"/><line class="cls-2" x1="914.42276" y1="1145.65582" x2="913.7858" y2="1021.00835"/><line class="cls-2" x1="1199.14885" y1="912.20788" x2="1078.58143" y2="880.57099"/></g></g></svg>