<svg xmlns="http://www.w3.org/2000/svg" viewBox="0 0 278.38551 391.52553"><defs><style>.cls-1{fill:#a64242;}.cls-2{fill:#c04c4c;}.cls-3{fill:#8c2d2d;}.cls-4{fill:none;stroke:#302e2a;stroke-linejoin:round;stroke-width:4.94205px;}</style></defs><g id="Layer_2" data-name="Layer 2"><g id="style_2" data-name="style 2"><g id="Brown"><g id="Text"><path class="cls-1" d="M276.17812,357.8701c-.08245.066-.18129.14831-.26364.21417-23.16172,18.21967-76.40405,30.97024-138.36083,30.97024-50.54066,0-95.28272-8.48389-122.62867-21.498a2.29688,2.29688,0,0,1-.28-.1482c-.36247-.18119-.75782-.379-1.15317-.54366a25.50937,25.50937,0,0,0-3.41-1.26849,9.78057,9.78057,0,0,1-4.44786-2.471,6.18405,6.18405,0,0,1-.77421-.98837.9281.9281,0,0,0-.08235-.13182,9.7271,9.7271,0,0,1-1.15316-4.26657,12.41557,12.41557,0,0,1,.09884-2.14154A139.4694,139.4694,0,0,1,15.3698,307.5601a123.28506,123.28506,0,0,1,11.87732-21.61322,69.50786,69.50786,0,0,1,6.30937-7.5119l.04947-.04947C40.16238,271.6644,46.0928,268.798,52.468,265.48684a.69849.69849,0,0,0,.11533-.08235A74.16871,74.16871,0,0,0,73.966,249.78755c20.60826-21.36607,27.41182-48.31678,29.93231-67.90368q-.519.09879-1.03784.14821a33.25381,33.25381,0,0,1-4.18423.32949c-18.28563.32949-32.65047-14.06833-32.69994-28.51561-.03288-13.706,12.79994-27.659,30.21243-28.74627.85655-.06585,1.7132-.08234,2.58635-.06585.37886,0,.75771,0,1.12018.01649A67.575,67.575,0,0,1,135.21444,2.537c1.26839-.08245,2.55337-.11532,3.85474-.11532a67.62992,67.62992,0,0,1,67.64015,67.62366,79.68181,79.68181,0,0,1-3.77239,22.30507,66.3144,66.3144,0,0,1-23.1947,30.60777c-.01649.01649-.03288.01649-.04937.033.4612-.04947.939-.09884,1.4002-.11533,19.19166-1.23551,34.69317,14.39782,34.11664,30.97015-.51067,14.87561-13.93661,28.30144-30.789,28.82861a32.08079,32.08079,0,0,1-4.51372-.1647v.13172c.52717,18.82918,4.44776,46.29057,23.77124,66.84945,18.13157,19.2908,36.81265,18.02452,53.58821,37.06536C267.67173,298.3667,278.39109,319.1019,276.17812,357.8701Z"/><path class="cls-2" d="M100.4883,125.97284c-2.28093.39618-16.47933,3.106-24.71024,16.47349a36.1741,36.1741,0,0,0-4.942,23.06289,24.19372,24.19372,0,0,1-3.62419-16.60013c1.3209-8.10674,6.72964-12.77028,9.30747-15.04634C86.03179,125.4638,97.66228,125.81,100.4883,125.97284Z"/><path class="cls-3" d="M168.02961,124.32549a2.83182,2.83182,0,0,0,0,1.64735c.98316,2.94668,7.5799,3.08332,9.88409,3.2947,10.02107.91924,21.88022,10.86821,24.71024,21.41553,3.32918,12.40763-6.26114,24.06147-7.79178,25.86826a30.06364,30.06364,0,0,0,9.617-6.04939,24.52835,24.52835,0,0,0,7.91186-12.71915,23.1202,23.1202,0,0,0-1.39686-14.27022,27.51526,27.51526,0,0,0-3.102-4.96356,35.64312,35.64312,0,0,0-6.88558-7.63412c-5.83671-4.52154-15.31487-7.11053-19.76819-6.5894-.24644.02883-2.74823.33293-3.283-.66725a3.49468,3.49468,0,0,1-.24772-1.96917c.01028-.06393.02006-.11463.02695-.14962.25438-1.29229,1.53134-2.33277,1.46211-2.53459-.23708-.69118-4.08667.77446-4.12739.79l-.00035.0001a21.10641,21.10641,0,0,0-7.00938,4.53051Z"/><path class="cls-3" d="M200.97659,142.44633a22.99584,22.99584,0,0,1,0,14.82614c-2.52308,6.83317-8.0857,10.198-13.17879,13.17879-4.05551,2.37352-12.54171,6.35666-35.91644,8.54306a210.4894,210.4894,0,0,1-45.58411-.64973c-8.05061-.84205-13.91688-1.85887-20.6351-4.59863a63.57388,63.57388,0,0,1-16.47349-9.88409,33.6303,33.6303,0,0,0,12.524,13.36915,35.064,35.064,0,0,0,9.63516,3.35168c.32324.05523.59072.09532.79432.1248,7.72566,1.11848,10.29993-1.747,15.64421,0,4.25532,1.39106,5.09359,4.01534,8.32972,6.59124,10.12139,8.05649,29.32754,2.36381,52.04651-4.2009,4.03437-1.16573,7.47141-2.35879,12.63011-2.39034,4.241-.02591,6.3235.75347,10.42946,0a25.221,25.221,0,0,0,8.69124-3.47648c2.27737-1.35469,11.46473-6.81975,13.906-17.38245.58153-2.51617,1.25572-5.44979,0-8.69124C211.07972,144.08533,201.8704,142.5793,200.97659,142.44633Z"/><path class="cls-3" d="M204.27129,53.48948a89.61787,89.61787,0,0,1-36.24168,70.836,29.89478,29.89478,0,0,0,11.53144-3.2947,34.8128,34.8128,0,0,0,4.942-3.2947,61.6233,61.6233,0,0,0,19.76819-64.24661Z"/><path class="cls-2" d="M171.32431,13.9531c-3.73281-.45-40.60959-4.23858-67.54132,24.71024C76.83348,67.63128,83.2963,104.16907,84.0148,107.852A66.49612,66.49612,0,0,1,73.23347,63.0514C76.22727,39.1726,91.49,25.1324,95.86044,21.365a65.57167,65.57167,0,0,1,75.46387-7.41189Z"/><path class="cls-2" d="M84.56986,237.87936a289.181,289.181,0,0,1-29.57438,38.67455c-14.57437,16.04783-19.43265,20.117-23.291,25.4853A47.5988,47.5988,0,0,0,28.73,306.749c-11.12417,19.47962-8.39189,39.43664-7.31445,46.558a81.90754,81.90754,0,0,0,4.942,18.12084L4.94205,361.54376a107.73506,107.73506,0,0,1,3.72641-37.83584c2.74386-9.6462,6.937-24.04065,19.02707-36.60636,5.039-5.23725,10.59312-9.25749,19.234-15.51122,8.90606-6.446,11.40542-7.3181,16.95816-11.58166A95.434,95.434,0,0,0,84.56986,237.87936Z"/><path class="cls-3" d="M97.1936,210.88994a221.736,221.736,0,0,0,21.93782,22.73018,231.80875,231.80875,0,0,0,31.11939,23.39756c14.56026,9.30595,28.967,18.50171,49.451,26.37543a217.53044,217.53044,0,0,0,63.874,13.904,70.50916,70.50916,0,0,0-11.88444-13.55408c-7.75842-6.82452-13.38773-8.66794-22.07113-13.55408-5.99441-3.373-18.5691-10.44886-28.86224-22.02535-10.59126-11.91176-14.85633-24.19056-16.97778-30.49667a97.48262,97.48262,0,0,1-4.54087-40.6263,274.45854,274.45854,0,0,1-35.92,3.2947,274.46708,274.46708,0,0,1-37.889-1.64735c-.20316.499-.51913,1.32118-.82571,2.36017-.91538,3.10225-.69348,4.96867-1.36408,8.4115q-.42817,2.19819-.95362,4.48765A134.89312,134.89312,0,0,1,97.1936,210.88994Z"/><path class="cls-4" d="M275.91448,358.08427c-23.16172,18.21967-76.40405,30.97024-138.36083,30.97024-50.54066,0-95.28272-8.48389-122.62867-21.498a2.29688,2.29688,0,0,1-.28-.1482c-.36247-.18119-.75782-.379-1.15317-.54366-.98837-.49418-1.96035-.98836-2.89935-1.48265-.97188-.52706-1.92737-1.05423-2.86637-1.59788-1.00486-.56014-1.96035-1.12019-2.86637-1.64735-.84016-.49418-1.63086-.972-2.38868-1.4167v-.23065a126.54043,126.54043,0,0,1,.906-14.76028A140.74818,140.74818,0,0,1,13.706,308.35079a108.51029,108.51029,0,0,1,10.1806-18.46672A70.70507,70.70507,0,0,1,33.55649,278.435l.04947-.04947c6.2764-5.94691,12.388-9.14277,18.86207-12.89867a.69849.69849,0,0,0,.11533-.08235A85.88869,85.88869,0,0,0,72.94467,249.837c11.72911-12.141,24.97376-32.41982,29.91581-67.80494,0-.03288.01649-.08235.01649-.11533a33.67262,33.67262,0,0,1-4.20072.44482c-18.76333.906-33.67182-13.75533-33.7048-28.48263-.04947-13.9531,13.29412-28.18622,31.21729-28.77925.873-.04936,1.77906-.03287,2.68519,0-.033-.01648-.066-.04936-.09884-.06585A67.57709,67.57709,0,0,1,135.21444,2.537c.939-.04947,1.89439-.066,2.84988-.066A67.61585,67.61585,0,0,1,205.688,70.09468a79.682,79.682,0,0,1-3.77239,22.30518,66.3984,66.3984,0,0,1-23.22768,30.64065c.36247-.03288.70845-.06586,1.05433-.08235a12.654,12.654,0,0,1,1.35083-.08235c18.73036-.64249,33.67182,14.7438,33.09529,31.00313-.51067,14.59548-13.40944,27.75779-29.76761,28.79563a31.80632,31.80632,0,0,1-4.51372-.033c-.32949-.01639-.67547-.04937-1.005-.08235.51068,18.82919,4.382,46.37292,23.77134,66.96478,18.302,19.47168,36.88407,18.302,53.58821,37.08184,6.75409,7.59426,11.05375,17.13237,13.83777,26.55526,4.51372,15.30384,5.00791,30.32766,5.43624,36.22519C275.78267,352.73038,275.88151,355.6792,275.91448,358.08427Z"/></g></g></g></g></svg>