<svg xmlns="http://www.w3.org/2000/svg" viewBox="0 0 2280.10265 2406.77206"><defs><style>.cls-1{fill:#f7f7f7;}.cls-2{fill:#fff;}.cls-3{fill:#e8e8e8;}.cls-4{fill:#c4976a;}.cls-5{fill:#edc8a4;}</style></defs><g id="Layer_2" data-name="Layer 2"><g id="Hand_and_pawn" data-name="Hand and pawn"><g id="Layer_1-2" data-name="Layer 1"><path class="cls-1" d="M1297.59038,2406.77206q-648.79967-1.63231-1297.586-2.99383C-.58046,2209.624,57.92707,2103.133,112.6998,2041.4771c72.52968-81.63161,141.05872-87.768,222.65294-172.3045,98.2613-101.80337,130.65177-230.2837,142.64036-323.64888-98.60686,16.67289-180.4669-58.31813-180.67956-133.62565-.19937-69.83905,69.83158-141.09278,161.62009-137.21426-81.9265-58.25168-135.27708-153.79494-135.27708-262.13091,0-178.02134,144.26188-322.2882,322.00411-322.2882,178.02134,0,322.29651,144.26686,322.29651,322.2882,0,53.31237-17.943,106.30326-17.943,106.30575-29.2139,80.89644-85.3822,127.46439-110.74166,146.05036,94.52648-10.09793,172.05362,66.16738,169.2359,146.98906-2.68481,77.17492-78.19169,146.02461-168.22578,136.62114,2.43228,89.77574,20.94682,221.04305,113.29356,319.19386,87.28282,92.77123,175.84159,87.21222,255.40227,176.68392C1259.31193,2100.99642,1313.83213,2204.3831,1297.59038,2406.77206Z"/><path class="cls-2" d="M469.24484,1292.82012a382.24085,382.24085,0,0,0-140.09235,163.74039c-4.41387-9.02171-16.57683-36.82346-8.86745-70.96643,7.05425-31.23746,26.58248-49.5795,35.9727-58.15288C399.62219,1287.845,456.60543,1291.6695,469.24484,1292.82012Z"/><path class="cls-3" d="M739.67537,1262.38833c89.70014-.81105,162.40655,61.81733,171.9953,137.25139,7.11381,55.941-21.1826,113.43005-71.38953,148.87956,11.15048,1.11215,64.83159,5.28407,112.29888-32.81988,12.81809-10.29144,53.90611-46.734,55.93106-103.80119,2.39554-67.54766-51.39808-122.98406-106.449-140.39262-27.75377-8.77584-52.576-6.85986-67.51168-4.43538a235.50555,235.50555,0,0,0,26.60894-19.9594c6.07486-5.2669,11.48136-10.49907,16.26581-15.52381Q808.54694,1246.98756,739.67537,1262.38833Z"/><path class="cls-3" d="M916.10439,1367.85258c1.5882,15.55566,2.34921,46.24719-14.78348,76.14089-15.76949,27.50851-40.413,43.39133-70.22485,56.18212-85.64362,36.74529-179.02308,31.86654-224.73011,28.82994a2199.54878,2199.54878,0,0,1-275.23483-35.976,147.068,147.068,0,0,0,37.94471,32.77273c32.71028,19.55883,64.81836,21.0213,77.1269,21.43778,17.7415.60013,17.629-2.16847,33.0213-1.23209,33.233,2.02164,56.08326,16.28607,67.26683,21.93079,71.89246,36.28083,144.90327-39.73061,235.07325-18.974,12.2556,2.82153,34.33818,9.61935,57.66485.493,12.9372-5.06155,17.86062-11.737,38.441-20.45219,19.76646-8.3703,28.38905-7.30861,34.74185-11.08844C937.94212,1502.73118,939.77517,1440.39231,916.10439,1367.85258Z"/><path class="cls-3" d="M954.05572,917.65885c-3.91756,42.23409-17.80106,128.92451-78.35775,216.34926A452.0234,452.0234,0,0,1,739.67537,1262.142c4.86386-.22893,14.68422-.68677,27.11188-1.2321,53.89949-2.36554,65.19555-2.35789,81.0643-9.61005,11.66665-5.33122,19.54808-11.726,26.73468-17.55476,6.98146-5.66582,18.41649-15.92459,34.56979-38.75,11.44827-16.17833,27.56848-39.31061,39.96967-73.80057,11.2365-31.25526,13.91659-56.55,15.52464-72.69132C967.53556,1019.53125,968.52156,973.54421,954.05572,917.65885Z"/><path class="cls-2" d="M784.26405,744.12313a707.59634,707.59634,0,0,0-422.20938,369.43279c-9.72772-27.0486-24.71634-80.33535-15.16068-146.36843,3.75212-25.90418,20.19-115.36506,100.758-184.32638,81.40842-69.68242,173.14012-71.12359,198.10131-71.129A315.9116,315.9116,0,0,1,784.26405,744.12313Z"/><path class="cls-2" d="M401.603,1820.26368a1378.18493,1378.18493,0,0,1-140.946,184.31583c-63.23678,69.62886-95.64927,90.9099-125.17653,143.90445-26.52953,47.612-50.93485,121.20975-38.441,233.598H20.15737a518.49536,518.49536,0,0,1,19.71351-152.77519c12.77839-44.68133,32.65072-114.14062,90.67953-174.45908,24.01489-24.96,50.48487-44.11966,91.66553-73.92361,42.44461-30.72048,54.3561-34.87668,80.81946-55.19611C329.97522,1905.0404,366.10012,1872.12788,401.603,1820.26368Z"/><path class="cls-3" d="M445.95788,1686.2161A1320.2338,1320.2338,0,0,0,555.3583,1792.66553a1206.43206,1206.43206,0,0,0,143.904,108.421c58.88247,37.71269,130.74846,85.88432,228.67414,122.22016,64.44116,23.91107,168.83875,53.69807,305.79442,54.21051-41.73654-54.34534-83.59881-84.33748-114.5753-101.768-39.05645-21.97587-68.32563-28.21328-115.56792-63.57386a401.13121,401.13121,0,0,1-61.60226-56.6747c-46.19011-53.20383-64.95732-106.59377-75.40635-137.25138-25.484-74.77356-27.27731-142.14916-24.14724-188.25821q-180.98516-.49258-361.97694-.98559a659.779,659.779,0,0,1-11.82546,76.88039A659.46662,659.46662,0,0,1,445.95788,1686.2161Z"/></g><g id="Layer_3" data-name="Layer 3"><path class="cls-4" d="M2273.42624,419.71191c7.9646,79.07715,15.90357,158.8208-21.33813,245.5669-41.5564,96.79639-117.27442,154.71533-180.58985,195.68262-201.35424,130.2832-264.82446,103.603-474.90454,220.625-179.64111,100.0664-247.51123,163.56152-392.63769,175.75195-53.772,4.5166-137.34961,10.62109-175.752-41.1333-38.40479-51.75879-15.42481-139.477,23.45507-191.21973,12.56885-16.727,22.61573-24.12646,88.727-66.79931,73.27735-47.29834,177.08985-109.20264,213.146-164.5337,25.95166-39.8247,30.51367-65.25244,29.99023-84.28662,0,0-.0288-.8208-.0747-1.71972-2.41211-47.376-43.458-95.70655-55.14112-107.43409-83.33642-83.65234-410.20849-49.05615-424.6997-47.438C785.437,565.9668,706.67673,587.749,669.22117,599.20312c-127.66358,39.03907-197.51514,84.36133-226.4585,105.376-2.16895,1.5708-5.08545,3.70215-9.124,6.80615-21.38916,16.30371-79.64942,63.1958-145.38819,165.87989q-9.70312,15.08862-19.55664,31.85986c-.0376.0376-.0376.07422-.07519.07422a55.66862,55.66862,0,0,1-10.73194,7.85351c-62.37353,36.272-161.35547-11.74218-175.75195-18.69726-14.62109-7.06738-37.35693-17.83692-48.61231-29.915-36.49658-39.189-17.08886-137.49805,34.06592-249.94238A956.09463,956.09463,0,0,1,205.53513,434.66943c300.30371-312.55224,972.4668-346.36377,972.4668-346.36377C1399.89792,67.55029,1736.81052,60.62354,2143.05417,150a121.42317,121.42317,0,0,1,84,78A724.99937,724.99937,0,0,1,2273.42624,419.71191Z"/><path class="cls-5" d="M1959.31607,842.26432c-154.81744,118.05341-127.03715,74.60072-362.7225,239.32192,0,0-194.8274,137.39908-347.16338,169.33553a367.3647,367.3647,0,0,1-45.47413,6.41664c-114.53783,9.61048-157.57863-22.81072-175.7519-41.13343-7.74858-7.8124-33.36145-32.37945-37.69816-69.74922-6.47275-55.7765,38.62592-100.944,64.64908-127.00682,38.94288-39.00245,78.30191-57.88782,85.23123-61.263,128.6762-62.67657,342.22731-247.82675,317.84932-388.898-5.44582-31.514-21.38173-52.75046-34.08287-69.27882-142.26334-185.132-535.36486-78.45347-680.14343-39.164-40.57476,11.011-131.70969,36.76256-226.45832,105.37621-1.00354.72672-2.16689,1.573-3.52755,2.58-.00027,0-2.80348,2.07555-5.59658,4.226C356.518,689.97448,287.80206,819.8276,287.8018,819.828c-35.059,66.25171-33.471,93.81741-63.56976,104.70345-46.8542,16.94584-130.79762-20.88394-135.75842-23.1665-3.16644-1.45639-6.33873-3.00956-6.339-3.00956-14.621-7.06732-37.35673-17.8369-48.61238-29.915-36.49652-39.189-17.0889-137.49812,34.06611-249.94232,39.97487-83.86937,114.10014-209.30069,247.797-312.3599,94.53962-72.8751,213.89094-112.0202,448.735-187.336C993.91336,45.10638,1111.6748,8.11673,1252.06509,1.17266c105.92-5.23907,194.04057,7.32764,365.9586,32.67487,131.5544,19.39605,315.479,51.27653,535.74139,105.40878a203.03881,203.03881,0,0,1,35.60519,24.12179,187.76746,187.76746,0,0,1,24.22536,24.49047l.00478.006a131.50746,131.50746,0,0,1,11.80742,16.82684c2.35542,4.07253,89.80007,188.0228,3.14517,379.54416C2192.86538,663.12088,2114.53023,723.90857,1959.31607,842.26432Z"/></g></g></g></svg>