<svg xmlns="http://www.w3.org/2000/svg" viewBox="0 0 438.05859 462.94139"><defs><style>.cls-1{fill:#a64242;}.cls-2{fill:#c04c4c;}.cls-3{fill:#8c2d2d;}.cls-4{fill:none;stroke-width:4px;}.cls-4,.cls-5,.cls-7{stroke:#302e2a;stroke-linejoin:round;}.cls-5{font-size:144.78342px;}.cls-5,.cls-7{fill:#f4f0e6;stroke-linecap:round;stroke-width:7px;font-family:Montserrat-ExtraBold, Montserrat;font-weight:800;}.cls-6{letter-spacing:0.008em;}.cls-7{font-size:90.59734px;}</style></defs><g id="Layer_2" data-name="Layer 2"><g id="style_2" data-name="style 2"><g id="Brown"><g id="Text"><path class="cls-1" d="M380.99709,423.92011c-.09788.07831-.21522.17607-.313.25425-27.497,21.62991-90.70482,36.767-164.25822,36.767-60.00049,0-113.117-10.07184-145.58142-25.52182a2.728,2.728,0,0,1-.33243-.176c-.43031-.21509-.89966-.44989-1.369-.64541a30.28348,30.28348,0,0,0-4.04828-1.50592,11.61122,11.61122,0,0,1-5.28039-2.93353,7.34233,7.34233,0,0,1-.91911-1.17336,1.10168,1.10168,0,0,0-.09776-.15649,11.5478,11.5478,0,0,1-1.369-5.06517,14.73965,14.73965,0,0,1,.11734-2.54237,165.57463,165.57463,0,0,1,13.82673-57.02793c7.06-16.09527,14.10043-25.65861,14.10043-25.65861a82.51773,82.51773,0,0,1,7.49032-8.91794l.05873-.05872c7.7836-7.97913,14.824-11.382,22.39253-15.313a.82844.82844,0,0,0,.13691-.09776c7.54905-3.91137,15.60647-8.40955,25.38491-18.54,24.46556-25.36522,32.54256-57.36036,35.53482-80.6134q-.6161.11727-1.23209.17594a39.47477,39.47477,0,0,1-4.96741.39116c-21.7082.39117-38.76175-16.70153-38.82047-33.85295-.039-16.27134,15.19573-32.836,35.86737-34.12678,1.01687-.07818,2.03387-.09776,3.07044-.07818.44977,0,.89954,0,1.32986.01957a80.22315,80.22315,0,0,1,41.93-145.44451c1.5058-.09788,3.03129-.13691,4.57624-.13691a80.28841,80.28841,0,0,1,80.30055,80.281c0,13.27908-4.47848,26.48-4.47848,26.48A78.72665,78.72665,0,0,1,266.511,145.03905c-.01958.01958-.039.01958-.05861.03915.54753-.05873,1.11475-.11733,1.66228-.13691,22.78382-1.46677,41.18679,17.09269,40.50235,36.76691-.60626,17.65992-16.54517,33.59871-36.55182,34.22454a38.08457,38.08457,0,0,1-5.35856-.19552v.15637c.62583,22.3535,5.28026,54.9549,28.22056,79.36185,21.52531,22.90151,43.703,21.39822,63.61847,44.003C370.89854,353.2793,383.62427,377.89555,380.99709,423.92011Z"/><path class="cls-2" d="M172.42291,148.618c-2.70785.47033-19.5638,3.68736-29.33532,19.55688a42.94494,42.94494,0,0,0-5.86706,27.37963,28.72205,28.72205,0,0,1-4.30254-19.70722c1.56814-9.6241,7.98924-15.16052,11.04957-17.8626C155.26054,148.01367,169.068,148.42471,172.42291,148.618Z"/><path class="cls-3" d="M252.60612,146.6623a3.36189,3.36189,0,0,0,0,1.95569c1.16719,3.49822,8.99866,3.66044,11.73413,3.91138,11.89673,1.0913,25.97559,12.90245,29.33532,25.42394,3.95232,14.73-7.433,28.56512-9.25019,30.71009a35.69083,35.69083,0,0,0,11.417-7.18167c2.5666-2.406,7.56629-7.095,9.39274-15.09982a27.44765,27.44765,0,0,0-1.65832-16.94122,32.66538,32.66538,0,0,0-3.68258-5.89261,42.31515,42.31515,0,0,0-8.17438-9.063c-6.92918-5.36785-18.1814-8.44143-23.46825-7.82276-.29257.03423-3.26263.39525-3.8975-.79214a4.14874,4.14874,0,0,1-.29409-2.33774c.0122-.07589.02381-.13608.032-.17762.302-1.53418,1.818-2.7694,1.73579-3.009-.28147-.82055-4.85159.91941-4.89994.93788l-.00041.00012a25.0572,25.0572,0,0,0-8.32135,5.3785Z"/><path class="cls-3" d="M291.71988,168.17487c1.06066,3.32317,2.71426,10.2503,0,17.60119-2.99533,8.11216-9.59912,12.10682-15.6455,15.64551-4.81459,2.81778-14.88917,7.54645-42.639,10.14209-24.408,2.283-40.8837.6127-54.11621-.77135-9.55746-.99965-16.52174-2.2068-24.49743-5.45937a75.47272,75.47272,0,0,1-19.55688-11.73412c4.38778,8.09425,10.29894,13.36341,14.86815,15.87149a41.62737,41.62737,0,0,0,11.4386,3.979c.38374.06556.70128.11315.943.14816,9.17169,1.32782,12.22779-2.074,18.57238,0,5.0518,1.65142,6.047,4.7669,9.88881,7.82493,12.01585,9.56445,34.81686,2.80626,61.7882-4.98719,4.78949-1.38393,8.86986-2.80029,14.99413-2.83774,5.03476-.03077,7.50709.8945,12.38157,0a29.942,29.942,0,0,0,10.318-4.12719c2.70363-1.60824,13.61062-8.09622,16.50879-20.636.69038-2.98712,1.49076-6.46983,0-10.318C303.71405,170.12065,292.781,168.33273,291.71988,168.17487Z"/><path class="cls-3" d="M295.63126,62.56772a106.39181,106.39181,0,0,1-43.02514,84.09458,35.49027,35.49027,0,0,0,13.68982-3.91137,41.33009,41.33009,0,0,0,5.86706-3.91138,73.1575,73.1575,0,0,0,23.46826-76.27183Z"/><path class="cls-2" d="M256.5175,15.63121c-4.43148-.53422-48.21059-5.03192-80.18321,29.33532-31.99373,34.39-24.32124,77.76662-23.46826,82.13889-3.41723-5.05672-16.28679-25.36945-12.7993-53.186,3.55416-28.34825,21.67361-45.0164,26.86212-49.489a77.84492,77.84492,0,0,1,89.58865-8.79919Z"/><path class="cls-2" d="M153.525,281.47037a343.30813,343.30813,0,0,1-35.10989,45.91337c-17.3023,19.05155-23.06992,23.8824-27.65043,30.25545a56.50921,56.50921,0,0,0-3.53126,5.59139c-13.20631,23.12568-9.96261,46.8181-8.68351,55.27236A97.23918,97.23918,0,0,0,84.417,440.01551L58.993,428.28138A127.90011,127.90011,0,0,1,63.4169,383.3637c3.25744-11.45171,8.23546-28.54041,22.58842-43.45808,5.98216-6.21752,12.57587-10.99024,22.834-18.41449,10.573-7.65253,13.54021-8.68785,20.13227-13.74944A113.29664,113.29664,0,0,0,153.525,281.47037Z"/><path class="cls-3" d="M168.51154,249.42927a263.23822,263.23822,0,0,0,26.044,26.98465,275.19706,275.19706,0,0,0,36.94409,27.77694c17.28555,11.04778,34.3888,21.96473,58.70688,31.3122A258.24667,258.24667,0,0,0,366.036,352.00955a83.70654,83.70654,0,0,0-14.10888-16.091c-9.21059-8.10189-15.89355-10.29034-26.20224-16.091-7.11641-4.00436-22.04473-12.4046-34.26447-26.1479-12.57366-14.14131-17.637-28.71837-20.15556-36.20481a115.7287,115.7287,0,0,1-5.39079-48.23044,325.82892,325.82892,0,0,1-42.64329,3.91138A325.83871,325.83871,0,0,1,178.29,211.2c-.2412.59238-.6163,1.56846-.98026,2.80193-1.08672,3.68291-.82328,5.89867-1.61941,9.9859q-.50832,2.60962-1.13211,5.32762A160.14178,160.14178,0,0,1,168.51154,249.42927Z"/><path class="cls-4" d="M380.68411,424.17436c-27.497,21.62991-90.70482,36.767-164.25822,36.767-60.00049,0-113.117-10.07184-145.58142-25.52182a2.728,2.728,0,0,1-.33243-.176c-.43031-.21509-.89966-.44989-1.369-.64541-1.17336-.58668-2.32727-1.17336-3.442-1.76017-1.15378-.62571-2.28812-1.25154-3.40287-1.897-1.19294-.665-2.32728-1.32985-3.40288-1.95568-.99742-.58669-1.93611-1.15391-2.83577-1.68187v-.27382a150.22579,150.22579,0,0,1,1.0756-17.523,167.0935,167.0935,0,0,1,12.2622-44.37456A128.82066,128.82066,0,0,1,81.48342,343.209,83.939,83.939,0,0,1,92.9633,329.61689l.05873-.05872c7.45117-7.06,14.70669-10.85405,22.39253-15.313a.82844.82844,0,0,0,.13691-.09776,101.96432,101.96432,0,0,0,24.1724-18.48127c13.92449-14.41341,29.64818-38.48793,35.51524-80.49619,0-.039.01958-.09776.01958-.13691a39.97186,39.97186,0,0,1-4.987.52807c-22.27531,1.07561-39.97426-16.32994-40.01341-33.8138-.05873-16.56474,15.78241-33.46191,37.06031-34.16593,1.03645-.05861,2.11205-.039,3.18778,0-.03915-.01958-.07831-.05861-.11734-.07818A80.22569,80.22569,0,0,1,213.64885,2.0783c1.11476-.05872,2.249-.0783,3.3833-.0783a80.27169,80.27169,0,0,1,80.281,80.281c0,13.2792-4.47848,26.48009-4.47848,26.48009a78.82633,78.82633,0,0,1-27.57527,36.37575c.43031-.039.841-.07818,1.25167-.09776a15.02275,15.02275,0,0,1,1.60367-.09776c22.23617-.76275,39.97427,17.50343,39.28983,36.80606-.60626,17.32737-15.91933,32.9533-35.3393,34.18539a37.757,37.757,0,0,1-5.35856-.03915c-.39117-.01946-.8019-.05861-1.19306-.09776.60625,22.3535,5.20219,55.05266,28.22068,79.49876,21.72766,23.11625,43.78776,21.72767,63.61847,44.02256,8.01827,9.01569,13.12271,20.33908,16.42782,31.52568,5.35857,18.1683,5.94525,36.00416,6.45375,43.00556C380.52762,417.81838,380.645,421.31913,380.68411,424.17436Z"/><text class="cls-5" transform="translate(3.5 342.10155) scale(0.93542 1)">C<tspan class="cls-6" x="106.84904" y="0">h</tspan><tspan x="208.77571" y="0">ess</tspan></text><text class="cls-7" transform="translate(70.5459 416.29881)">gains</text></g></g></g></g></svg>