<svg xmlns="http://www.w3.org/2000/svg" viewBox="0 0 1278.19922 656.47279"><defs><style>.cls-1{fill:#cecece;stroke-width:0.25px;}.cls-1,.cls-4,.cls-7{stroke:#0d0d0d;}.cls-1,.cls-4,.cls-5,.cls-7,.cls-8{stroke-miterlimit:10;}.cls-2,.cls-5{fill:#f7f7f7;}.cls-3{fill:#d1d1d1;}.cls-16,.cls-4,.cls-7{fill:none;}.cls-4{stroke-width:7px;}.cls-5,.cls-8{stroke:#333;}.cls-5{stroke-width:2.39739px;}.cls-6{fill:#fcfcfc;}.cls-7{stroke-width:8px;}.cls-8{fill:#f0f0f0;stroke-width:2.9306px;}.cls-9{fill:#545252;}.cls-10{fill:#383838;}.cls-11{fill:#666;}.cls-12{fill:#ffc13f;}.cls-13{fill:#cc9a33;}.cls-14{fill:#8c2d2d;}.cls-15{fill:#681919;}.cls-16{stroke:#ffc13f;stroke-linejoin:round;stroke-width:2.6961px;}.cls-17{fill:#a64242;}.cls-18{fill:#cc9a32;}</style></defs><g id="Layer_2" data-name="Layer 2"><g id="Layer_3" data-name="Layer 3"><ellipse class="cls-1" cx="639.09961" cy="420.34779" rx="638.97461" ry="236"/></g><g id="Layer_1-2" data-name="Layer 1"><path class="cls-2" d="M242.11065,394.89916q1.80294,2.10369,3.44705,4.25484c4.32309,5.65229-1.48167,12.522-10.7603,12.89712l-.00254.0001c-6.10725.54161-76.9349,3.36414-77.71763-.83294l-2.7764-14.88718c-.78274-4.19708-6.36817-7.16042-12.47542-6.61881l-38.32685,3.39894c-6.10725.54161-10.42362,4.38307-9.64088,8.58015l2.77639,14.88718c.78274,4.19708-3.53363,8.03854-9.64088,8.58015l-16.10127,1.42791c-6.1072.5416-10.42356,4.383-9.64089,8.58008l6.24938,33.512c.78268,4.19711,6.36815,7.1605,12.47544,6.61889l16.10126-1.42791c6.10725-.54161,11.69269,2.42173,12.47543,6.61881l2.77651,14.88781c.78274,4.19708,6.36817,7.16042,12.47542,6.61881l38.32685-3.39893c6.10725-.54161,10.42362-4.38308,9.64088-8.58016l-2.77651-14.88781c-.78274-4.19708,68.77584-13.82441,74.88309-14.366,0,0,.41826-.037,1.1797-.09169,8.75923-.62939,15.95936,4.86245,13.94762,10.75614q-.79692,2.3347-1.75564,4.653"/><path class="cls-3" d="M163.01926,496.26245a46.32449,46.32449,0,0,1-7.74457-17.92159c-1.52406-8.91058,5.14586-17.23519,16.032-19.975,10.17724-2.56139,37.87284-4.38769,58.23485-5.76169-.3901.03459,1.37473,7.37135,1.37473,7.37135s-58.39181,5.17836-55.79377,17.40865c1.51257,7.12045,4.0185,12.51306-.06825,17.04487C172.08208,497.72486,163.01926,496.26245,163.01926,496.26245Z"/><path class="cls-2" d="M112.63657,395.71266a46.32458,46.32458,0,0,1,7.74457,17.92159c1.52406,8.91058-5.14585,17.23519-16.032,19.975-10.17724,2.56139-18.64608,3.168-39.00809,4.542.39009-.0346-1.37473-7.37136-1.37473-7.37136s39.16505-3.95867,36.567-16.189c-1.51257-7.12044-4.0185-12.51305.06825-17.04487C103.57375,394.25025,112.63657,395.71266,112.63657,395.71266Z"/><path class="cls-4" d="M245.6163,395.37709q1.80294,2.10369,3.44705,4.25485c4.32309,5.65228-1.48167,12.522-10.7603,12.89711l-.00254.0001c-6.10725.54161-76.9349,3.36414-77.71763-.83294l-2.7764-14.88718c-.78274-4.19707-6.36817-7.16042-12.47542-6.61881l-38.32685,3.39894c-6.10725.54161-10.42362,4.38307-9.64088,8.58015l2.77639,14.88718c.78274,4.19708-3.53363,8.03854-9.64088,8.58015l-16.10127,1.42791c-6.1072.5416-10.42356,4.383-9.64089,8.58008l6.24938,33.512c.78268,4.19711,6.36815,7.1605,12.47544,6.61889l16.10126-1.42791c6.10725-.54161,11.69269,2.42173,12.47543,6.61881l2.77651,14.88781c.78274,4.19708,6.36817,7.16042,12.47542,6.61881l38.32685-3.39893c6.10725-.54161,10.42362-4.38308,9.64088-8.58016l-2.77651-14.88781c-.78274-4.19708,68.77584-13.82441,74.88309-14.366,0,0,.41826-.037,1.1797-.09169,8.75923-.62939,15.95936,4.86246,13.94762,10.75614q-.79692,2.3347-1.75564,4.653"/><path class="cls-5" d="M392.83494,381.80917l-70.63637-2.50364c-17.06851-.094-32.15911-7.22567-37.58064-17.88016-8.38669-16.48192-13.38841-39.50812,18.3962-46.52106,35.39322-7.80954,82.91906,5.29308,108.945,14.15132,11.79828,4.01543,19.84709,11.57406,21.47532,20.30473C436.44493,365.50273,417.48184,381.94362,392.83494,381.80917Zm-48.21885,149.673c-32.46629-1.2065-35.98342-23.76128-33.97038-40.72243,1.30142-10.9641,12.976-20.25161,29.0308-23.2413l65.685-14.36783c23.18338-4.3171,46.935,7.95686,49.86789,23.683,1.58641,8.50644-3.298,17-12.98336,22.79C420.88146,512.398,380.76856,532.82605,344.61609,531.48216Zm38.08685,58.122,200.93938-95.89076L549.48757,310.57381,319.90221,252.86327c-72.99355-18.34845-143.34218,28.86721-134.851,92.5863q.29493,2.21353.71018,4.44242L217.325,519.13768q.4156,2.22849.943,4.42178C233.433,586.68668,318.81705,620.09151,382.70294,589.60419Z"/><path class="cls-6" d="M211.99168,283.52932a1021.25268,1021.25268,0,0,1,205.16148,25.66886A971.43072,971.43072,0,0,1,515.241,337.32787l2.55026-29.10775q-92.27516-23.60041-184.55-47.19938c-10.81671-3.38175-33.49-9.07959-60.52561-5.32269a122.084,122.084,0,0,0-32.03725,8.91273A96.85665,96.85665,0,0,0,211.99168,283.52932Z"/><path class="cls-3" d="M227.89831,541.38587c44.517,32.29479,83.7169,35.15547,98.22948,35.41455,38.07074.68055,65.623-13.75665,119.17356-42.65981a681.82218,681.82218,0,0,0,89.98907-57.90073,89.92845,89.92845,0,0,0,3.78294,13.91561,97.55691,97.55691,0,0,0,7.32671,15.74594c-206.893,94.83119-164.51924,98.52459-240.22439,92.76577-2.68133-.88638-6.40906-2.17671-10.76312-3.87832-7.406-2.89526-23.41094-9.15056-37.71208-19.497A99.28117,99.28117,0,0,1,227.89831,541.38587Z"/><path class="cls-7" d="M380.18219,588.08612l200.93938-95.89075L546.96683,309.05575,317.38146,251.3452c-72.99354-18.34845-143.34218,28.86722-134.851,92.5863q.29493,2.21353.71017,4.44243l31.56359,169.24568q.4156,2.22849.943,4.42178C230.91229,585.16861,316.2963,618.57344,380.18219,588.08612Zm10.09214-207.83246-70.5596-2.50092c-17.05-.09391-32.12416-7.21782-37.5398-17.86072-8.37757-16.464-13.37386-39.46519,18.3762-46.4705,35.35476-7.80106,82.82894,5.28733,108.82659,14.13593,11.78545,4.01107,19.82552,11.56149,21.452,20.28266C433.83692,363.965,414.89444,380.388,390.27433,380.25366Zm-48.4245,149.9632c-32.67341-1.21419-36.213-23.91286-34.1871-40.98221,1.30972-11.034,13.05874-20.38081,29.216-23.38958l66.10407-14.45948c23.33128-4.34464,47.23446,8.00762,50.186,23.83406,1.59654,8.5607-3.319,17.10847-13.06619,22.93541C418.60174,511.01093,378.23293,531.56933,341.84983,530.21686Z"/><path class="cls-8" d="M600.35237,522.64293c-32.77808,8.70354-51.04055-17.08629-51.04055-17.08629s-21.97428-48.30832-29.95665-97.75322c-10.41984-49.22874-6.88606-99.79941-6.88606-99.79941s8.20533-28.13708,43.11039-25.43565c2.36135-.20941,7.76984-26.97606,58.44449-21.22488L638.0869,390.3701,640.62,403.95291l24.063,129.02684C617.76748,547.38529,602.71372,522.43352,600.35237,522.64293Z"/><path class="cls-3" d="M585.58064,269.33774c-15.05217,18.49569-.19853,100.69977,4.72324,127.2638,5.54229,29.91308,23.31019,123.31192,44.41241,134.845,11.67539,6.38083,21.64516,4.6124,21.64537,4.6124a25.17232,25.17232,0,0,0,8.32127-3.07949c11.94595-29.75023,25.3467-78.2378,14.45474-137.42165C668.06826,335.40987,636.582,289.61065,613.80284,262.32a22.10855,22.10855,0,0,0-4.283-1.946,20.2289,20.2289,0,0,0-5.77765-1.12727C603.742,259.24686,594.10792,258.85881,585.58064,269.33774Z"/><path class="cls-7" d="M600.20285,523.24285c-32.77811,8.70351-51.04059-17.08631-51.04059-17.08631s-21.97426-48.30832-29.95667-97.75319c-10.41983-49.22874-6.88605-99.79948-6.88605-99.79948s8.20537-28.13707,43.11039-25.43557c2.36133-.20944,7.76985-26.9761,58.4445-21.22493,22.793,27.41562,54.22638,73.3437,65.26324,133.61446,10.88526,59.44272-2.59257,108.13655-14.60426,138.02185C617.61792,547.9852,602.56418,523.03342,600.20285,523.24285Z"/></g><g id="Layer_2-2" data-name="Layer 2"><path class="cls-9" d="M934.15128,154.81964q-2.64887,1.13831-5.33579,2.14634a10.61547,10.61547,0,0,1-14.22909-9.77007c-.01521-.63132-.01534-.97916-.01534-.97916,0-5.07929,4.10353-63.45764,9.16548-63.45764h17.95571a9.1812,9.1812,0,0,0,9.16548-9.19686V41.6865a9.18121,9.18121,0,0,0-9.16548-9.19686H923.73654a9.18122,9.18122,0,0,1-9.16548-9.19687V9.90164A9.18123,9.18123,0,0,0,905.40548.70477L864.98777.70516a9.18121,9.18121,0,0,0-9.1654,9.19686V23.29316A9.18121,9.18121,0,0,1,846.65688,32.49H828.70194a9.18122,9.18122,0,0,0-9.16549,9.19687V73.56263a9.18122,9.18122,0,0,0,9.16549,9.19687h17.95494c5.062,0,9.16549,58.37834,9.16549,63.45763l.00014.0021a10.61665,10.61665,0,0,1-14.16954,10.7714q-2.72434-1.0175-5.41083-2.171"/><path class="cls-10" d="M943.54852,67.69414a69.0454,69.0454,0,0,0-22.07784-3.60172c-10.73228.11268-19.90717,6.83986-22.01238,16.16437-1.96813,8.71734-1.22088,31.65516-.70861,48.524,0-.32443,8.89035,0,8.89035,0s0-48.56341,14.78392-48.30394c8.60716.15107,15.26886,1.37848,20.21561-2.65656C946.23715,74.88575,943.54852,67.69414,943.54852,67.69414Z"/><path class="cls-11" d="M828.21816,53.4A69.0454,69.0454,0,0,0,850.296,57.00172c10.73228-.11268,19.90717-6.83985,22.01238-16.16437,1.96813-8.71734,1.79678-15.73868,1.28451-32.60752,0,.32444-8.89035,0-8.89035,0s-.5759,32.64693-15.35982,32.38746c-8.60716-.15107-15.26886-1.37848-20.21561,2.65657C825.52953,46.20839,828.21816,53.4,828.21816,53.4Z"/><path class="cls-4" d="M935.08717,157.61486q-2.64885,1.13832-5.33578,2.14634a10.61547,10.61547,0,0,1-14.2291-9.77006c-.0152-.63133-.01534-.97917-.01534-.97917,0-5.07929,4.10353-63.45763,9.16549-63.45763h17.9557a9.18122,9.18122,0,0,0,9.16549-9.19687V44.48173a9.18122,9.18122,0,0,0-9.16549-9.19687h-17.9557A9.18121,9.18121,0,0,1,915.507,26.088V12.69687A9.18121,9.18121,0,0,0,906.34138,3.5l-40.41772.00038a9.18121,9.18121,0,0,0-9.1654,9.19687V26.08838a9.18122,9.18122,0,0,1-9.16549,9.19687H829.63783a9.18121,9.18121,0,0,0-9.16548,9.19686V76.35786a9.1812,9.1812,0,0,0,9.16548,9.19686h17.95494c5.062,0,9.16549,58.37835,9.16549,63.45764l.00015.00209a10.61666,10.61666,0,0,1-14.16955,10.77141q-2.72433-1.0175-5.41082-2.171"/><path class="cls-9" d="M812.34347,318.06274a31.71381,31.71381,0,0,1-26.35-14.47192c-13.24819-19.94153-33.79427-56.8256-28.25267-86.97417,4.97617-27.07464,32.82176-26.49585,53.25907-22.14912,13.2114,2.81,23.26051,14.06818,25.168,28.01844l10.4026,57.40918C849.32322,300.03951,831.81226,318.06274,812.34347,318.06274Zm179.20617-15.71816a30.89817,30.89817,0,0,1-25.673,14.09968c-18.96675,0-36.02821-17.55965-33.34551-37.18586l10.13542-55.9325c1.85785-13.59145,11.64861-24.56008,24.52-27.29776,19.91165-4.23493,47.04172-4.79883,51.88918,21.5794C1024.474,246.98064,1004.45779,282.916,991.54964,302.34458Zm4.83214-186.9q-2.65722-.0965-5.34533-.0968H786.91474q-2.68781,0-5.34546.0968c-76.49255,2.77527-125.10949,67.53528-95.65979,124.45533l92.62671,179.0299a551.06767,551.06767,0,0,0,111.62317,11.181,551.057,551.057,0,0,0,109.2555-11.181l92.62683-179.0299C1121.49128,182.97987,1072.87434,118.21986,996.38178,115.44459Z"/><path class="cls-11" d="M704.93891,147.17079c2.49927,15.23389,5.80017,31.65723,10.17908,49.04077a615.17327,615.17327,0,0,0,41.86218,114.89563,626.8981,626.8981,0,0,0,63.1792,104.2406q-26.49993-8.00006-53-16c-34.85974-68.71167-60.75769-121.04053-76.16809-149.54224-4.32886-8.00622-14.29431-26.02929-12.68335-48.7069a78.78989,78.78989,0,0,1,7.20349-27.57117A85.94008,85.94008,0,0,1,704.93891,147.17079Z"/><path class="cls-10" d="M1017.54487,120.84059c15.04395,13.81445,36.405,38.2384,40.24353,71.67749.15222,1.32507.29382,2.81213.35486,4.53747,1.54163,43.58021-27.07764,86.58179-35.7395,99.59607-17.648,26.51563-39.08118,63.95142-61.24439,117.69617q21-6.50006,42-13c6.84192-13.92285,17.14771-34.72412,30-60,14.42432-28.36743,21.63648-42.55115,24.65491-47.90857,25.87585-45.92773,38.14941-55.38989,41.36316-80.11413,1.231-9.47022-1.07691-19.19873-5.43543-37.18189-1.33374-2.05847-3.25695-4.91138-5.73339-8.21411-4.214-5.61743-13.31983-17.75745-27.1001-27.87927C1046.28425,129.30848,1030.3636,123.75306,1017.54487,120.84059Z"/><path class="cls-7" d="M993.3155,113.85084q-2.65722-.0965-5.34546-.0968H783.84834q-2.68763,0-5.34534.0968c-76.49268,2.77527-125.1095,67.53528-95.65991,124.45533L775.46992,417.336a559.05183,559.05183,0,0,0,113.68945,11.01184A559.00688,559.00688,0,0,0,996.34858,417.336q46.31341-89.515,92.62671-179.02978C1118.425,181.38612,1069.80805,116.62611,993.3155,113.85084ZM809.26572,316.40058a31.67937,31.67937,0,0,1-26.32138-14.4562c-13.23379-19.91985-33.75754-56.76384-28.222-86.87965,4.97076-27.04521,32.78608-26.467,53.20119-22.125,13.197,2.8069,23.23522,14.05288,25.1406,27.988l10.3913,57.34678C846.20528,298.39693,828.71336,316.40058,809.26572,316.40058Zm179.31605-15.34864A31.09527,31.09527,0,0,1,962.745,315.24157c-19.08775,0-36.25805-17.67167-33.55823-37.42309l10.20007-56.28932c1.86971-13.67815,11.72293-24.71677,24.67641-27.47191,20.03867-4.26194,47.34182-4.82944,52.22021,21.71707C1021.71618,245.33481,1001.57228,281.4994,988.58177,301.05194Z"/><path class="cls-9" d="M1034.49629,436.39047c6.87744-23.75364-25.64222-33.04268-25.64222-33.04268a276.39079,276.39079,0,0,1-33.6947,11.87934c-36.17,10.19729-65.88781,10.75382-84,10.97151-25.23022.3033-55.43689.42507-91-10.97151a219.78448,219.78448,0,0,1-29.56714-11.87934s-32.51965,9.289-25.642,33.04268c0,1.65743-31.18811,8.83873-19.03284,43.08842h327.61169C1065.68415,445.2292,1034.49629,438.0479,1034.49629,436.39047Z"/><path class="cls-9" d="M732.40949,454.98817C752.77,439.85109,851.86335,439.46083,883.8979,439.43434c36.07336-.02966,148.75549.2561,164.65918,15.76123,8.79895,8.57861,7.74975,17.00525,7.74975,17.00537a17.4646,17.4646,0,0,1-2.77807,7.27795,229.407,229.407,0,0,1-56.36939,29.8689c-31.57263,11.40332-56.14465,12.09058-104,13-59.24365,1.12573-89.56811,1.35474-124-15a175.54915,175.54915,0,0,1-42.10656-28.19873,16.72263,16.72263,0,0,1-2.7594-3.20752,12.27872,12.27872,0,0,1-1.94532-4.55481C722.34809,471.38649,720.87409,463.56361,732.40949,454.98817Z"/><path class="cls-7" d="M1035.19233,436.19425c6.87744-25.76921-25.64221-35.84646-25.64221-35.84646A282.87823,282.87823,0,0,1,973.15937,413.431a305.11026,305.11026,0,0,1-89,10.98689,311.59894,311.59894,0,0,1-112.87109-24.07005s-32.51978,10.07725-25.642,35.84646c-4.568,1.896-13.08081,6.21567-17.5918,14.76923,0,.00011-6.32641,11.996,1.10486,29.30443,13.69336,31.89357,102.28943,45.03842,179,42.11645,67.90039-2.58646,131.36365-17.94692,143-43.9476,7.26038-16.22262,1.62464-27.47328,1.62464-27.47339C1048.3343,442.0801,1039.29951,437.8297,1035.19233,436.19425Z"/><rect class="cls-12" x="879.61878" y="300.35885" width="19.01369" height="15.20367"/><path class="cls-13" d="M898.72538,315.3676a26.21125,26.21125,0,0,0-2.82633-.29238c-.92106-.045-1.778-.03816-2.5591,0V300.35885h5.38543Z"/><path class="cls-14" d="M971.80574,110.11329c6.85156-.24987,14.33459-.22668,22.35363.2345,7.15821.41174,13.84339,1.12061,20,2L910.56672,296.1194H867.97688Q919.89131,203.11628,971.80574,110.11329Z"/><path class="cls-15" d="M910.518,296.26559q.82388-1.58474,1.64781-3.16938-11.12127-18.47844-22.24258-36.95689-.85549,1.71092-1.711,3.42193Q899.36512,277.91337,910.518,296.26559Z"/><rect class="cls-16" x="865.49172" y="293.82907" width="47.65766" height="13.15702" rx="2.07411"/><path class="cls-17" d="M749.15937,114.34779a130.08871,130.08871,0,0,1,46.09827-4.2345Q852.8879,203.14076,910.518,296.1681l-42.736.24353Q808.47072,205.37966,749.15937,114.34779Z"/><ellipse class="cls-18" cx="888.97944" cy="356.90968" rx="43.51563" ry="43.29635"/><circle class="cls-12" cx="888.54087" cy="357.71372" r="43.51563"/><circle class="cls-18" cx="889.9053" cy="356.93404" r="36.79093"/><circle class="cls-12" cx="888.78452" cy="356.2031" r="26.80134"/></g></g></svg>