<svg xmlns="http://www.w3.org/2000/svg" viewBox="0 0 1760.79802 2346.2342"><defs><style>.cls-1{fill:#ffc13f;}.cls-2{fill:#cc9a33;}.cls-3{fill:#8c2d2d;}.cls-4{fill:#681919;}.cls-5{fill:none;stroke:#ffc13f;stroke-linejoin:round;stroke-width:27.41657px;}.cls-6{fill:#a64242;}.cls-7{fill:#cc9a32;}.cls-8{fill:#b3872c;}</style></defs><g id="Layer_2" data-name="Layer 2"><g id="Leaderboard"><g id="Layer_22" data-name="Layer 22"><rect class="cls-1" x="799.9732" y="1056.40932" width="243.12695" height="194.40839"/><path class="cls-2" d="M1044.28813,1248.32529a335.14924,335.14924,0,0,0-36.14-3.73862c-11.77759-.57564-22.73477-.488-32.72314,0V1056.40932h68.86317Z"/><path class="cls-3" d="M1760.798,0q-282.57411,501.07877-565.10278,1002.203H651.11973Q779.56636,768.67752,908.05735,535.17423,1055.237,267.58725,1202.46208,0Z"/><path class="cls-4" d="M1195.07926,1004.06909q10.535-20.26389,21.07043-40.52671-142.207-236.28277-284.41446-472.56556-10.93916,21.8775-21.878,43.75607Q1052.46836,769.40047,1195.07926,1004.06909Z"/><rect class="cls-5" x="619.33133" y="972.91341" width="609.39552" height="168.23803" rx="26.52156"/><path class="cls-6" d="M1195.08209,1002.81614q-273.24047,1.56711-546.45987,3.11094Q324.32275,502.97519,0,0H579.56783Q743.81315,267.58739,908.05735,535.17423q143.29617,233.52588,286.63889,467.02876C1194.83262,1002.40728,1194.94571,1002.61185,1195.08209,1002.81614Z"/><ellipse class="cls-7" cx="919.66736" cy="1779.52129" rx="556.4317" ry="553.62773"/><circle class="cls-1" cx="914.05943" cy="1789.8025" r="556.4317"/><circle class="cls-8" cx="921.53668" cy="1772.3556" r="470.44338"/><circle class="cls-7" cx="931.50634" cy="1779.83284" r="470.44338"/><circle class="cls-8" cx="925.2753" cy="1774.84801" r="342.70709"/><circle class="cls-1" cx="917.17495" cy="1770.48628" r="342.70709"/></g></g></g></svg>