<svg xmlns="http://www.w3.org/2000/svg" viewBox="0 0 1151.96624 1786.47171"><defs><style>.cls-1{fill:#e8e8e8;}</style></defs><g id="Layer_2" data-name="Layer 2"><g id="Door"><path class="cls-1" d="M1151.96624,58.23238V1786.47171h-100.412V152.70615c0-29.26027-22.27555-52.98384-49.75-52.98384H147.69794a47.29489,47.29489,0,0,0-4.86.24965c-25.194,2.60184-44.89,25.22025-44.89,52.73419V1786.47171H0V58.23238C0,26.07216,24.481,0,54.67821,0H1097.288C1127.48527,0,1151.96624,26.07216,1151.96624,58.23238Z"/><path class="cls-1" d="M529.78126,937.49879v-7.21061a17.33935,17.33935,0,0,1,17.33954-17.33954h25.695c-5.4576-13.94056-15.51613-23.297-27.0323-23.297-17.32209,0-31.36673,21.18036-31.36673,47.31088,0,26.12134,14.04464,47.3014,31.36673,47.3014,13.13384,0,24.37328-12.16724,29.05062-29.42555H547.1208A17.33935,17.33935,0,0,1,529.78126,937.49879Z"/><path class="cls-1" d="M984.40751,124.437q-279.05919,65.9148-558.1184,131.8293V1647.25012l551.95816,137.98954q22.17689-4.92813,44.35378-9.8564,1.84807-819.313,3.69614-1638.62577Q1005.35206,130.5974,984.40751,124.437ZM720.74893,937.49879a17.33934,17.33934,0,0,1-17.33953,17.33954H594.14021c-5.13575,31.81671-24.14528,55.44222-46.82691,55.44222-26.625,0-48.20393-32.54463-48.20393-72.69092s21.57891-72.69091,48.20393-72.69091c20.88769,0,38.66458,20.03343,45.35843,48.04992H703.4094a17.33934,17.33934,0,0,1,17.33953,17.33954Z"/></g></g></svg>