<svg xmlns="http://www.w3.org/2000/svg" viewBox="0 0 2522.3913 1698.8287"><defs><style>.cls-1{fill:#993737;}.cls-1,.cls-2,.cls-3,.cls-4,.cls-5,.cls-6{fill-rule:evenodd;}.cls-2,.cls-7{fill:#a64242;}.cls-3{fill:#db9a31;}.cls-4,.cls-9{fill:#efaa30;}.cls-5{fill:#c4c4c4;}.cls-6,.cls-8{fill:#e8e8e8;}.cls-10{font-size:719.75323px;font-family:Montserrat-Bold, Montserrat;font-weight:700;}</style></defs><g id="Layer_2" data-name="Layer 2"><g id="Leaderboard"><g id="Layer_22" data-name="Layer 22"><path class="cls-1" d="M1664.00274,168.11025V1698.8287H856.92983V168.11025A103.481,103.481,0,0,1,960.41062,64.62935h600.11122A103.481,103.481,0,0,1,1664.00274,168.11025Z"/><path class="cls-2" d="M1613.88726,904.81094q15.69559,393.31576,31.3914,786.63155-394.17441,3.69321-788.34883,7.38621V168.11025A103.481,103.481,0,0,1,960.41062,64.62935c103.32852,10.14748,293.53835,38.76454,455.89548,131.10526,52.7247,29.9871,92.66317,61.09313,123.719,107.10007,45.47216,67.364,51.01171,135.72885,55.39659,199.42772C1605.24259,644.92867,1611.0169,779.26765,1613.88726,904.81094Z"/><path class="cls-3" d="M856.92983,518.88137V1698.8287H49.85693V606.81422a87.93247,87.93247,0,0,1,87.93284-87.93285Z"/><path class="cls-4" d="M775.55223,733.08151c18.35812,36.71873,23.93362,73.72056,35.08451,147.72424,10.50317,69.70467,10.81254,117.50338,12.92587,203.12082,1.82367,73.8806,5.66555,147.70327,7.38621,221.58635,2.12133,91.08722,6.18557,222.8367,14.77242,391.46922q-397.93212.9234-795.86431,1.84656V606.81422a87.93247,87.93247,0,0,1,87.93284-87.93285A1809.1136,1809.1136,0,0,1,417.321,531.80724c74.14321,9.29566,112.1666,14.3295,158.80355,33.238C611.20023,579.26627,720.88349,623.73614,775.55223,733.08151Z"/><path class="cls-5" d="M2472.53438,867.47369v831.355h-807.073v-908.504h729.924A77.15946,77.15946,0,0,1,2472.53438,867.47369Z"/><path class="cls-6" d="M2472.53438,867.47369v831.355q-393.31578-.9234-786.63155-1.84656,43.48077-409.21829,86.96087-818.43657,4.68694-44.11035,9.37365-88.22092h613.148A77.15946,77.15946,0,0,1,2472.53438,867.47369Z"/><rect class="cls-7" x="803.25053" width="904.81094" height="151.41734" rx="61.35592"/><path class="cls-8" d="M1725.29667,709.07633H2522.3913a0,0,0,0,1,0,0V860.49367a0,0,0,0,1,0,0H1725.29667a59.70592,59.70592,0,0,1-59.70592-59.70592v-32.0055a59.70592,59.70592,0,0,1,59.70592-59.70592Z" transform="translate(4187.98205 1569.56999) rotate(-180)"/><path class="cls-5" d="M1663.74419,890.03851q20.31219,295.44835,40.62417,590.89694c5.05525-273.68543,54.98206-591.14556,265.90362-709.07632,125.18173-69.99184,288.33568-62.7828,280.676-62.7828H1665.59074Q1664.66736,799.55731,1663.74419,890.03851Z"/><path class="cls-9" d="M59.70592,445.01926H856.80056a0,0,0,0,1,0,0V596.4366a0,0,0,0,1,0,0H59.70592A59.70592,59.70592,0,0,1,0,536.73068v-32.0055A59.70592,59.70592,0,0,1,59.70592,445.01926Z"/></g><text class="cls-10" transform="translate(1107.86445 802.39579)">1</text><text class="cls-10" transform="translate(263.98945 1337.89579)">2</text><text class="cls-10" transform="translate(1855.71943 1454.22929)">3</text></g></g></svg>