<svg xmlns="http://www.w3.org/2000/svg" viewBox="0 0 2279.6135 2104.89333"><defs><style>.cls-1{fill:#6b6868;}.cls-1,.cls-10,.cls-2,.cls-3,.cls-4,.cls-5,.cls-6,.cls-7,.cls-8,.cls-9{fill-rule:evenodd;}.cls-2{fill:#7c7979;}.cls-3{fill:#edc8a4;}.cls-4{fill:#8a3c04;}.cls-5{fill:#db9a31;}.cls-6{fill:#dbb383;}.cls-7{fill:#efaa30;}.cls-8{fill:#333;}.cls-9{fill:#9e7856;}.cls-10{fill:#eee;}</style></defs><g id="Layer_2" data-name="Layer 2"><g id="Avatars"><path class="cls-1" d="M2279.6135,1198.96677c-6.20569,17.35154-22.75829,43.46466-37.04986,64.53936-6.41457,9.4744-12.38692,17.92906-16.76156,24.12253-52.07878,73.68195-145.85259,163.41279-226.7602,202.79742-31.79041,31.11448-229.30385,101.54009-288.28878,91.82-34.57992,21.71373-215.40561-.71283-254.28637-15.44676-54.74544-9.2164-121.59505-39.44629-164.568-61.60239-43.09579-23.69231-76.1152-45.099-110.76878-72.31794-17.25314-13.05056-25.54789-20.65708-41.09276-34.18676-15.029-13.07486-29.70142-23.98723-37.29579-39.91311-11.44069-3.88306-47.17552-48.982-74.16123-88.72309-17.80606-26.21152-31.815-50.088-32.51554-58.25994a724.38511,724.38511,0,0,1,166.348-110.34322c45.82426-21.93334,123.62193-58.23849,229.29185-63.163,21.153-.98584,38.68711-.49337,50.53206.1152-87.72885,78.4082-81.70864,120.3794-77.73722,133.92033,22.53066,76.82083,230.18259,94.62164,325.64562,94.62164h.0003c18.5756-.78963,153.399-8.3168,200.303-98.3082,4.6025-8.83058,29.55231-56.69987,10.19488-87.61575-18.42783-29.4314-75.09156-40.73679-74.98265-41.62033a.79684.79684,0,0,1,.26071-.00225c83.44422,4.36564,203.93072,22.29186,331.97454,85.61407A824.55646,824.55646,0,0,1,2279.6135,1198.96677Z"/><path class="cls-2" d="M2242.56364,1263.50613c-45.49334,65.76086-113.99647,145.48372-213.25511,213.57463-.00015,0-174.13975,119.45911-325.64593,120.42755h-.0003c-.22756.0198-206.09546,17.87821-411.76356-92.3114-7.86843-4.21563-47.213-26.55488-76.32161-46.8029-11.58859-8.061-22.92758-16.46695-34.44717-25.515-17.25314-13.05056-25.54789-20.65708-41.09276-34.18676-15.029-13.07486-29.70142-23.98723-37.29579-39.91311-11.44069-3.88306-47.17552-48.982-74.16123-88.72309q72.72357-41.49223,145.447-82.98445A628.9253,628.9253,0,0,1,1364.5239,1132.486a617.99113,617.99113,0,0,1,77.71262-4.37479l383.68461.99544a859.17463,859.17463,0,0,1,146.553,20.20226c92.80521,21.08716,159.60532,52.57005,185.42157,65.4118A799.07028,799.07028,0,0,1,2242.56364,1263.50613Z"/><path class="cls-3" d="M1422.11491,1202.661c-20.17743-14.26393-36.97179-29.76556-49.34889-52.35791-38.017-69.4218,9.19756-101.1402,69.46581-111.9l10.35276-2.789c-.09352-31.49836.28055-62.9032.46758-94.38506.31355-49.932-1.90332-36.97178-23.79155-66.63283-23.19194-31.42134-48.41923-79.9616-57.19872-126.87908-30.73373-4.7088-38.93563-10.99637-48.82081-33.4952-6.79915-15.43562-13.61481-43.84795-16.64033-60.48829-7.84433-43.42438-14.76451-111.06939,28.05477-119.81587,11.39794,21.44264,11.43095,51.52176,22.40531,75.20329,19.89689-10.39677,19.01124-47.34106,19.02224-69.40531,2.822-77.35415,6.87617-188.77011,58.60147-230.96228,58.13388-47.43457,174.90774,26.23946,252.54794-1.04518,49.43141-4.66479,131.37335-38.55056,179.69356,66.4073,17.779,38.61106,16.67334,62.85919,18.60417,108.84151,1.29272,30.79974-1.93083,94.91864,21.27211,112.10357,19.02224-9.9677,16.87137-46.17486,39.12266-57.14922,27.87874,36.87827,21.50315,69.01473,12.09655,121.04808-10.24274,56.77516-15.02855,80.33567-64.21242,89.43972-25.07326,112.8957-77.38716,136.65974-80.26965,165.30861-2.29389,22.59235-.066,58.61247-.39056,82.95411l-.01651,38.84211,12.76768,3.90016c49.965,6.98619,92.88879,31.52586,76.09444,89.39571-15.79319,54.43176-60.5433,73.56951-78.33883,90.87545-11.53546,1.26522-53.79364,20.678-74.26813,26.00843-27.69721,7.22273-55.3119,11.13389-84.59338,12.9437-104.02269,6.44159-111.80652-11.56847-176.07945-20.601Z"/><path class="cls-4" d="M1267.46161,226.839c9.13705,47.40706,38.62757,85.11047,41.7576,122.95141,3.5591,42.97881-25.97542,110.49729-.84164,144.6141,4.7253,13.34527,17.933,29.50151,26.278,39.51322,11.39794,21.44264,11.43095,51.52176,22.40531,75.20329,19.89689-10.39677,19.01124-47.34106,19.02224-69.40531,2.822-77.35415,6.87617-188.77011,58.60147-230.96228,58.13388-47.43457,174.90774,26.23946,252.54794-1.04518,49.43141-4.66479,131.37335-38.55056,179.69356,66.4073,17.779,38.61106,16.67334,62.85919,18.60417,108.84151,1.29272,30.79974-1.93083,94.91864,21.27211,112.10357,19.02224-9.9677,16.87137-46.17486,39.12266-57.14922,34.1003-36.91128,36.22366-80.58871,41.1965-144.97166,4.74181-61.53347,7.85534-123.11094-11.30442-179.74307-28.27481-63.79435-57.71031-53.4526-132.68256-89.30219-31.66889-15.14408-49.32139-40.916-78.65238-51.36224C1745.845,48.79569,1658.83667,23.893,1622.91006,15.28949,1570.28261,2.68685,1496.82311-8.304,1444.04164,8.75438c-69.23478,22.38881-70.87406,66.58333-95.33672,104.14922C1324.36328,150.26045,1275.0419,159.69456,1267.46161,226.839Z"/><path class="cls-5" d="M1134.12635,1831.45726a29.60825,29.60825,0,0,1-1.1444,3.662,31.42474,31.42474,0,0,1-8.35461,11.969l-38.03292,40.10977q-7.83394,8.57128-16.19635,16.66323c-26.40818,25.64615-56.41666,47.98668-86.40084,69.40565l-81.06707,48.53967C785.62365,2078.174,703.61,2100.72343,567.736,2104.31166c-206.01731,5.43158-383.70921-82.49288-521.4268-214.4962a125.57734,125.57734,0,0,1-31.09-36.70582c-45.977-83.32106,25.98291-193.92259,35.41772-208.01675,17.86126-26.68224,40.94755-51.66956,72.94242-75.0494,71.60526-52.32449,203.69461-74.00162,311.17-84.16425-19.32982,24.66315-32.45388,27.28061-45.36914,60.9389-12.32542,32.13453-9.90462,65.57156-2.5192,100.29894.1968.90934.39331,1.831.60212,2.74032.35642,1.60972.72513,3.21959,1.11845,4.82945,12.82915,53.46739,42.801,116.102,72.30549,138.62693,45.84856,59.73436,159.49282,79.93677,236.1119-41.58448q1.99087-3.15194,3.96917-6.52528c13.57888-23.18829,26.42033-53.71309,34.34636-85.78611,10.46985-42.30946,12.38693-87.30989-3.76036-121.66871-14.72163-31.31113-28.2021-27.40332-43.15714-51.68546,109.53978,8.17175,234.15761,31.72891,309.05641,82.95985,42.69783,29.20535,68.56884,65.452,72.69956,70.85793,17.75416,23.23479,55.85924,74.40768,63.32206,148.09893A253.91693,253.91693,0,0,1,1134.12635,1831.45726Z"/><path class="cls-6" d="M1132.49188,1836.9748c.29491.04905-.28261,1.33941,0,0Z"/><path class="cls-7" d="M1124.87305,1846.96538a672.89152,672.89152,0,0,1-77.41771,78.64656c-157.41193,135.5566-400.69173,216.51813-643.91873,162.20854-180.44422-40.291-300.42835-141.53893-357.59609-197.84526-8.914-6.53338-36.12425-28.24816-43.00984-65.12919-6.60448-35.37466,9.4105-63.69872,20.41977-83.16986,13.80749-24.41984,33.41573-42.42961,58.4479-63.44686,70.38871-59.09893,199.22172-84.15885,305.66477-96.07476,1.84328-.22591,3.67456-.42347,5.50524-.62132q-.85955,1.26274-1.70288,2.4589c-2.3221,3.29579-2.69021,3.56715-2.68391,3.711.1404,3.13048,178.949-18.10307,346.73292,5.43548,82.42043,11.5628,156.06758,33.37433,220.35793,83.919,15.36845,12.08272,22.77157,24.574,62.33981,65.3578C1062.20322,1787.9638,1099.74758,1823.65723,1124.87305,1846.96538Z"/><path class="cls-6" d="M1090.71089,2000.41219c.29491.04912-.28261,1.33948,0,0Z"/><path class="cls-8" d="M152.13043,1239.52272c39.93129,16.42029-5.61645,62.46862,44.002,73.85006,19.13225,4.38425,33.36867,1.28172,42.69276,15.74918,9.35709,14.517,3.196,29.19346,14.90753,44.79962-6.98619-80.92977,1.29272-142.2542,12.08556-218.60168l11.83251,4.47776c34.89793,8.01486,35.77258-18.63167,31.47085-46.32888-7.48677-47.94616-.6271-40.39887,2.43142-78.72939,10.47928-77.26614,35.73957-35.44253,70.56049-86.89828,17.713-26.135,19.63284-23.14244,56.53862-22.8949,33.29166.22,28.31882-15.34211,46.49941-28.89091,40.6024-23.577,62.29259,1.57327,105.44193-33.63822,73.87756-60.31226,51.89582-103.082,145.67027-7.25023,26.75655,27.35065,22.08076,41.86762,47.13752,85.8421,14.48946,25.40332,3.90016,20.348,14.98455,51.02117,12.56963,34.82093-5.00035,85.1985,29.02293,104.88084,22.40531,12.9437,33.19815-2.07385,45.2837-10.69932-1.09468,16.12325-6.51861,58.38143-19.51182,70.91807,5.07187,54.23372,13.09773,96.52491,13.55431,154.48277,12.23958-7.68481.29705-4.95634,13.04822-11.05688,12.64665-6.051,13.91186-2.24438,27.24063-4.48876,22.17427-3.69663,20.24344-13.81835,34.85393-23.59352,28.30231-18.92872,51.48875-17.29494,64.32244-53.40858,6.018-16.88237,6.051-27.39466,15.04506-43.59492,8.09187-14.53347,16.62382-20.6175,24.65519-34.18281,27.97226-47.275-8.576-58.08438-18.01006-80.77024-13.80185-33.24765,28.15928-55.54294,7.28323-92.8888-14.583-26.09093-47.71511-31.48185-67.568-50.119-25.2933-23.764-14.1099-58.01837-9.68164-94.6491,7.18422-59.3936-16.21676-58.33192-34.33684-85.57805-25.24379-14.43446-23.79705-27.73572-40.07432-52.732-16.23326-24.90274-24.54517-20.788-55.84-34.82093-33.24766-22.99941-14.517-29.45751-54.60779-62.46862-22.09726-18.2246-52.00584-20.90906-83.22365-30.42018-65.00456-19.85287-70.83555-10.94686-96.36539-17.746-45.10767-12.00855-28.36282-28.33532-85.8256-6.59563-37.78042,14.28593-66.50081-.90215-96.28287,21.44265-11.695,8.763-17.636,19.59984-30.86025,27.98876-14.44,9.15356-25.74438,8.763-38.98513,15.54565-38.2315,19.59983-10.52329,53.99718-40.949,72.78838-27.28464,16.85486-60.84035,12.3661-63.4753,49.09035C214.082,727.25909,160.53036,758.70794,143.428,773.896c-16.57418,38.62757-22.98277,21.69019-48.4356,43.08333-26.30547,22.09726-13.65882,33.58871-26.663,63.43679C58.27361,903.49257,34.339,911.25989,61.7337,942.30167c22.11376,25.04576,20.381,28.16479.033,56.88517-35.73958,50.47659,5.36342,95.89781,29.82608,120.74,29.72155,30.20013,8.31191,36.23466,13.05372,76.06143C108.06258,1224.62068,128.61407,1228.77939,152.13043,1239.52272Z"/><path class="cls-9" d="M389.3967,1546.80494c-14.84883,35.90614-8.41536,69.58618-2.54681,100.30959,13.16847,68.9389,49.52252,118.59462,74.03717,146.2039,45.84466,59.72371,159.48862,79.92852,236.1164-41.587,33.07161-52.44044,64.14664-151.0338,34.53507-213.9864-14.70393-31.29493-28.1925-27.41127-43.14394-51.67586a255.0269,255.0269,0,0,1-7.81144-99.06078c26.91086-10.66636,67.238-56.10405,82.23922-82.30507,30.51371-53.29848,38.40194-109.18262,47.69844-116.80685,12.25612,14.28587-5.05522,69.37227,7.82794,109.10552-.09361-20.535-1.65578-41.0095-1.57867-61.91845.1593-42.94578-2.16759-43.27595,10.45154-48.94739.85834,2.66246-1.09444,133.4307,4.39549,151.12726,3.91667,12.64659.91864,9.60461,10.24274,14.847,14.95684-5.7541,16.189-.95164,13.74119-54.37673-1.87028-40.74549-1.91978-103.80279-17.98247-140.69747-6.23277-14.34646-5.754-1.93088-8.05895-20.38107,20.55148.25306,15.15515,2.65152,23.62091,20.47453,12.99326-12.53664,18.41719-54.79479,19.51194-70.91808-12.08542,8.62552-22.87838,23.64311-45.28364,10.69935-34.02325-19.68234-16.4533-70.05989-29.02294-104.88088-11.08457-30.67316-.495-25.6178-14.98474-51.02108-25.05677-43.97453-20.38077-58.49155-47.13741-85.84207C642.48933,759.335,664.471,802.10485,590.59341,862.417c-43.14935,35.2116-64.83938,10.06123-105.44191,33.63834-18.18048,13.54872-13.20777,29.11084-46.49929,28.89078-36.90578-.24751-38.82556-3.24-56.53862,22.895-34.821,51.45565-60.08117,9.63206-70.56062,86.89827-3.05833,38.33038-9.91812,30.78311-2.4313,78.72936,4.30158,27.69719,3.42705,54.34373-31.47074,46.32888-19.64394,70.731-14.99585,136.04907-15.34236,206.37313-.17041,31.84486,6.61228,25.7333,15.65587,29.42451,12.95995-50.97173,19.61634-129.90466,11.93151-190.591,38.765,19.33582,22.26755-31.34429,31.12423-5.46249,2.94313,8.675,5.55054,24.71566,8.76307,34.59a350.91142,350.91142,0,0,0,27.17457,62.96369c19.57223,35.33251,53.03446,71.72662,85.84207,89.61564,3.68175,23.39965,5.47583,58.79066-10.99967,94.05612C417.861,1510.60344,401.48452,1517.57559,389.3967,1546.80494Z"/><path class="cls-10" d="M818.33223,1297.0185l3.79014,58.61247c2.3214,11.574,4.17521,24.90273,6.98619,36.83426,4.59878,19.55033,3.72413,23.10943,21.69019,26.75655,18.05407-19.83637,16.12324-73.74,15.93621-107.6093-.45658-57.95786-8.48244-100.249-13.56531-154.48277-8.45493-17.83954-3.075-20.20494-23.61-20.491,2.30489,18.46664,1.80981,6.051,8.05887,20.39747,16.06273,36.89477,16.11224,99.952,17.98256,140.69743,2.46442,53.42509,1.23221,48.62277-13.74134,54.36025-9.32409-5.22589-6.31507-2.18388-10.24274-14.83053-5.48994-17.69651-3.5371-148.46475-4.39525-151.1272-12.61915,5.67146-10.29225,6.00152-10.45178,48.94732C816.693,1255.99252,818.23871,1276.467,818.33223,1297.0185Z"/><path class="cls-10" d="M300.0891,1316.13425l-3.78465,58.618c-2.32689,11.56847-4.18071,24.89723-6.98619,36.82876-4.59878,19.55583-3.72963,23.10943-21.69018,26.75656-18.05958-19.83088-16.12325-73.74-15.93621-107.60931.45107-57.95786,8.48244-100.249,13.5653-154.48277,8.44944-17.834,3.06952-20.20494,23.61-20.48549-2.3104,18.46114-1.80981,6.051-8.06437,20.392-16.06274,36.89478-16.10674,99.9575-17.97706,140.69743-2.46442,53.42509-1.23221,48.62277,13.73583,54.36025,9.32409-5.22589,6.31508-2.18387,10.24275-14.83052,5.48993-17.69651,3.5426-148.45926,4.40074-151.12721,12.61365,5.677,10.29226,6.00152,10.44628,48.94733C301.72837,1275.10827,300.18811,1295.58275,300.0891,1316.13425Z"/></g></g></svg>