<svg xmlns="http://www.w3.org/2000/svg" viewBox="0 0 518.82962 457.82745"><defs><style>.cls-1{fill:#fff;}</style></defs><g id="Layer_2" data-name="Layer 2"><g id="Token"><path class="cls-1" d="M368.72643,457.01691c-4.24862-.10024-7.64913-2.39738-11.12367-4.41934-34.657-20.16825-69.2511-40.44589-103.96439-60.516C240.706,384.60444,234.13,373.77384,234.30344,358.74c.13686-11.86281.05705-23.72862.00962-35.59284-.01305-3.26587.0316-6.25987,3.425-8.21288,15.682-9.02525,31.2957-18.16991,48.28772-28.0598,0,14.32956.19944,27.221-.05147,40.1037-.30056,15.43177,6.33546,26.43782,19.6684,33.97775q25.2328,14.26938,50.06715,29.24365c14.23112,8.61868,27.91785,8.9825,42.20839-.03472,16.34346-10.31253,33.05112-20.051,49.71159-29.84875,12.58585-7.40157,18.74226-18.04672,18.51864-32.83615-.31932-21.11957-.21274-42.24876-.0353-63.37169.11546-13.74368-5.71783-23.92322-17.37152-30.8q-27.204-16.05286-54.53644-31.88654c-13.21832-7.66921-26.01506-6.84972-39.21946.90885C292.806,238.86575,230.22837,274.72481,168.29086,311.66576c-17.87385,10.66038-33.33783,11.50239-51.3678.2288-31.78449-19.87391-64.56719-38.1517-97.08524-56.8292C6.24043,247.25542-.11089,236.07009.01614,220.28161Q.49457,160.8187.00245,101.35C-.13619,85.924,5.59459,75.20767,19.25388,67.4431c34.85577-19.81364,69.22768-40.483,103.8555-60.70253,4.40945-2.57473,9.19027-4.50938,13.799-6.74057h15.58334c7.21765,1.18911,13.48529,4.64885,19.645,8.33328q46.46327,27.79182,93.24279,55.04408c14.19057,8.27473,22.00658,19.728,21.07737,36.83252-.64288,11.83472-.21215,23.73252-.09524,35.59942.05728,5.81188-2.16813,9.75671-7.17632,12.77741-12.11958,7.31-24.42609,14.29-36.72972,21.26974-8.12184,4.60743-10.53455,3.04133-10.77222-6.67289-.24075-9.83834-.03134-19.684-.08611-29.5264-.086-15.459-6.345-27.12735-20.05082-34.927-16.81256-9.56754-32.91248-20.34915-49.621-30.1097-13.11683-7.66239-26.099-7.77713-39.292.06009-15.14125,8.99457-30.11314,18.32448-45.73763,26.44277-16.0133,8.32033-23.87049,20.38019-22.8104,39.08,1.06327,18.75594.75165,37.63889.0665,56.43024-.527,14.454,5.77486,24.53552,17.29971,31.74228,17.38362,10.87041,35.06236,21.26516,52.659,31.79,12.92362,7.72978,25.45546,7.44336,38.30712-.58785,63.19738-39.493,129.04977-74.4347,192.8078-112.97135,14.71092-8.89159,28.96489-8.94674,43.98928.10505,33.3875,20.11514,67.27072,39.39667,100.95542,59.01184,10.9517,6.37733,19.70311,14.40346,18.50109,28.77745q.00571,68.30417.00344,136.54886c1.416,14.24811-7.064,22.59766-17.93787,29.00293q-48.36837,28.49144-97.00983,56.51611c-6.48907,3.73772-12.713,8.08931-20.7873,7.12164C378.2023,457.35258,373.40534,458.43481,368.72643,457.01691Z"/></g></g></svg>