<svg xmlns="http://www.w3.org/2000/svg" viewBox="0 0 2224.34883 2260.01987"><defs><style>.cls-1{fill:#ffc13f;}.cls-2{fill:#efaa30;}.cls-3{fill:none;stroke:#efaa30;stroke-linecap:round;stroke-miterlimit:10;stroke-width:5.9519px;}.cls-4{fill:#ffcb5c;}</style></defs><g id="Layer_2" data-name="Layer 2"><g id="Trophy"><g id="trophy-2" data-name="trophy"><path class="cls-1" d="M1407.15939,187.11622c-124.15709,0-224.784,101.23284-224.784,226.10623s100.62688,226.10624,224.784,226.10624,224.784-101.23285,224.784-226.10624S1531.31648,187.11622,1407.15939,187.11622Zm0,388.0571c-88.92561,0-161.01547-72.51376-161.01547-161.95087s72.08986-161.95086,161.01547-161.95086,161.01548,72.51375,161.01548,161.95086S1496.085,575.17332,1407.15939,575.17332Z"/><path class="cls-1" d="M664.359,190.11622c-124.15709,0-224.784,101.23284-224.784,226.10623S540.20192,642.32869,664.359,642.32869,889.143,541.09584,889.143,416.22245,788.5161,190.11622,664.359,190.11622Zm0,388.0571c-88.92562,0-161.01548-72.51376-161.01548-161.95087S575.43339,254.27159,664.359,254.27159s161.01547,72.51375,161.01547,161.95086S753.28462,578.17332,664.359,578.17332Z"/><path class="cls-2" d="M1116.23924,986.405c-44.031,12.56146-85.021,10.94866-115.9094,5.92434A289.982,289.982,0,0,1,954.92368,981.116C725.22126,903.78964,597.01511,518.16658,629.48922,23.80066c.05294-.8729.10588-1.77162.15882-2.64452h825.08942C1477.82405,534.669,1341.84317,922.09078,1116.23924,986.405Z"/><path class="cls-2" d="M1000.32984,992.32932s-18.38508-2.11768-45.40616-11.21337C725.22126,903.78964,597.01511,518.16658,629.48922,23.80066h87.26907c-30.52946,157.25452-26.91261,287.94765-18.3528,375.52146,3.764,38.50821,26.879,256.86167,126.93684,412.54471,38.24736,59.50939,78.42647,95.37695,87.26907,103.13618a460.74518,460.74518,0,0,0,121.6478,76.691Q1017.29387,992.01166,1000.32984,992.32932Z"/><path class="cls-1" d="M1116.34883,986.55184c-13.39306,9.58594-23.21826,10.37989-23.21826,10.37989-3.49707.28271-12.75879.45849-22.36914.05127-.5874-.02491-1.47607-.062-2.6167-.11328-13.63672-.6128-48.26758-4.52979-52.41748-5.17579-92.44873-14.39209-194.37842-167.14209-194.37842-167.14209C763.50337,737.86581,730.12837,650.878,710.28706,576.505,674.15059,441.05136,677.71358,327.97811,681.582,205.21835c2.21606-70.32324,7.87182-128.71826,12.76684-169.66651l684.60449-11.751c34.729,198.373,19.01465,358.36426,1.39551,458.751C1380.34883,482.55184,1317.11055,842.85653,1116.34883,986.55184Z"/><path class="cls-1" d="M1171.7741,1234.98961q-125.62748,1.30935-251.22915,2.64452c0-.10588.02583-.18465.02583-.29053q17.17646-128.08735,34.3529-256.22765,75.36874-1.11178,150.79043-2.2481c8.80645-.13171,17.58578-.26471,26.39223-.39642Q1151.94022,1106.7176,1171.7741,1234.98961Z"/><path class="cls-2" d="M1142.68441,1240.20753q-112.37907,1.22519-224.75815,2.4251,17.17646-131.957,34.3529-263.96858c7.82767-.10908,15.65534-.24477,23.483-.35385q-17.01763,130.77174-34.03525,261.598,100.28118-1.06356,200.5869-2.15239C1142.44682,1238.57262,1142.5527,1239.39074,1142.68441,1240.20753Z"/><path class="cls-2" d="M1174.41893,1237.63225c-8.06562.08068-16.10488.15976-24.1713.2668q-19.5957-127.63323-39.24411-255.292,11.90071-1.33,23.80065-2.66084Q1154.63711,1108.77643,1174.41893,1237.63225Z"/><path class="cls-2" d="M1367.46839,1319.61417H738.07325q91.23585-42.31163,182.4717-84.62456H1171.7741Q1269.6206,1277.30125,1367.46839,1319.61417Z"/><rect class="cls-1" x="732.78422" y="1316.96965" width="639.97321" height="55.53486" rx="11.97245"/><rect class="cls-2" x="597.91383" width="885.91332" height="84.62456" rx="18.27121"/></g><g id="coins"><rect class="cls-2" x="738.07325" y="1372.51307" width="634.68417" height="84.62456" rx="22.14182"/><rect class="cls-2" x="738.07325" y="1541.76218" width="634.68417" height="84.62456" rx="22.14182"/><rect class="cls-1" x="738.07325" y="1457.13762" width="634.68417" height="84.62456" rx="22.14182"/><rect class="cls-2" x="738.07325" y="1711.01129" width="634.68417" height="84.62456" rx="22.14182"/><rect class="cls-1" x="738.07325" y="1626.38673" width="634.68417" height="84.62456" rx="22.14182"/><rect class="cls-2" x="738.07325" y="1880.2604" width="634.68417" height="84.62456" rx="22.14182"/><rect class="cls-1" x="738.07325" y="1795.63585" width="634.68417" height="84.62456" rx="22.14182"/><rect class="cls-2" x="738.07325" y="2049.50951" width="634.68417" height="84.62456" rx="22.14182"/><rect class="cls-1" x="738.07325" y="1964.88496" width="634.68417" height="84.62456" rx="22.14182"/><rect class="cls-2" x="1589.66466" y="1704.72346" width="634.68417" height="84.62456" rx="22.14182"/><rect class="cls-2" x="1589.66466" y="1873.97257" width="634.68417" height="84.62456" rx="22.14182"/><rect class="cls-1" x="1589.66466" y="1789.34802" width="634.68417" height="84.62456" rx="22.14182"/><rect class="cls-2" x="1589.66466" y="2043.22168" width="634.68417" height="84.62456" rx="22.14182"/><rect class="cls-1" x="1589.66466" y="1958.59713" width="634.68417" height="84.62456" rx="22.14182"/><rect class="cls-2" y="1548.11049" width="634.68417" height="84.62456" rx="22.14182"/><rect class="cls-2" y="1717.3596" width="634.68417" height="84.62456" rx="22.14182"/><rect class="cls-1" y="1632.73504" width="634.68417" height="84.62456" rx="22.14182"/><rect class="cls-2" y="1886.60871" width="634.68417" height="84.62456" rx="22.14182"/><rect class="cls-1" y="1801.98415" width="634.68417" height="84.62456" rx="22.14182"/><rect class="cls-2" y="2055.85782" width="634.68417" height="84.62456" rx="22.14182"/><rect class="cls-1" y="1971.23327" width="634.68417" height="84.62456" rx="22.14182"/></g><g id="Layer_17" data-name="Layer 17"><path class="cls-3" d="M919.12019,267.47344c-73.979,44.90611-116.48519,126.1729-108.34231,207.76634C820.64,574.06109,903.15578,656.91344,1010.09656,669.5"/><path class="cls-2" d="M936.42539,251.33858c-9.61729,4.41368-88.85155,41.44038-83.06184,71.379a17.60428,17.60428,0,0,0,2.50488,6.1561,111.20738,111.20738,0,0,0,80.557-77.53507Z"/><path class="cls-2" d="M806.51087,275.39486c-2.33574,10.32071-21.05211,95.75338,6.24712,109.33983a17.60407,17.60407,0,0,0,6.41178,1.7496,111.20734,111.20734,0,0,0-12.6589-111.08943Z"/><path class="cls-2" d="M749.16933,354.81811c2.28825,10.33134,21.78929,95.58833,52.27568,96.23658a17.60422,17.60422,0,0,0,6.54567-1.15158,111.20734,111.20734,0,0,0-58.82135-95.085Z"/><path class="cls-2" d="M739.59445,453.91646c5.11209,9.26494,47.89113,85.5473,77.32019,77.56168a17.60421,17.60421,0,0,0,5.95423-2.95283,111.20735,111.20735,0,0,0-83.27442-74.60885Z"/><path class="cls-2" d="M758.76244,553.35535c8.05611,6.8609,75.03,63.10623,99.73889,45.23692a17.60431,17.60431,0,0,0,4.52674-4.86627,111.20736,111.20736,0,0,0-104.26563-40.37065Z"/><path class="cls-2" d="M814.78511,664.59615c10.46275,1.58227,97.02643,14.06321,108.60043-14.14818a17.60406,17.60406,0,0,0,1.28073-6.52163,111.20735,111.20735,0,0,0-109.88116,20.66981Z"/><path class="cls-2" d="M889.28752,356.8814c-4.4628,9.59459-41.89431,88.63841-71.80289,82.69564a17.60412,17.60412,0,0,1-6.14321-2.53633,111.20734,111.20734,0,0,1,77.9461-80.15931Z"/><path class="cls-2" d="M871.14168,441.06642c-.34736,10.576-3.8211,97.96582-33.66719,104.2149a17.60406,17.60406,0,0,1-6.6458.073,111.20741,111.20741,0,0,1,40.313-104.28793Z"/><path class="cls-2" d="M891.48792,505.482c3.39235,10.02321,30.85837,93.05731,5.1135,109.39871a17.6041,17.6041,0,0,1-6.196,2.40441A111.20737,111.20737,0,0,1,891.48792,505.482Z"/><path class="cls-2" d="M937.4312,556.33777c6.497,8.35233,59.71815,77.75374,40.77108,101.64617a17.60422,17.60422,0,0,1-5.06217,4.30657A111.20739,111.20739,0,0,1,937.4312,556.33777Z"/><path class="cls-3" d="M1153.12733,266.84907c73.3653,45.902,114.76912,127.73587,105.52411,209.21179-11.19692,98.679-94.82507,180.40842-201.92622,191.5484"/><path class="cls-2" d="M1136.0418,250.48179c9.55675,4.54326,88.2833,42.63756,82.08945,72.49516a17.60417,17.60417,0,0,1-2.58786,6.12168,111.20738,111.20738,0,0,1-79.50159-78.61684Z"/><path class="cls-2" d="M1265.61929,276.29187c2.196,10.35134,19.75593,96.02919-7.72446,109.24541A17.60413,17.60413,0,0,1,1251.46,387.2a111.20736,111.20736,0,0,1,14.1593-110.90818Z"/><path class="cls-2" d="M1321.88206,356.48293c-2.42769,10.29947-23.07933,95.28508-53.5717,95.5212a17.60412,17.60412,0,0,1-6.52951-1.23995,111.20735,111.20735,0,0,1,60.10121-94.28125Z"/><path class="cls-2" d="M1330.11659,455.70165c-5.23686,9.195-49.04306,84.89216-78.3615,76.50948a17.60421,17.60421,0,0,1-5.91377-3.033,111.20736,111.20736,0,0,1,84.27527-73.47645Z"/><path class="cls-2" d="M1309.60627,554.87237c-8.14811,6.75138-75.87616,62.08631-100.34123,43.88466a17.60444,17.60444,0,0,1-4.46055-4.927,111.2074,111.2074,0,0,1,104.80178-38.95764Z"/><path class="cls-2" d="M1252.08512,665.34577c-10.48318,1.44071-97.20765,12.75045-108.39928-15.6148a17.60417,17.60417,0,0,1-1.19245-6.53835,111.20737,111.20737,0,0,1,109.59173,22.15315Z"/><path class="cls-2" d="M1181.74878,356.65211c4.33271,9.654,40.69239,89.19658,70.67857,83.65862a17.60406,17.60406,0,0,0,6.17693-2.45307,111.20735,111.20735,0,0,0-76.8555-81.20555Z"/><path class="cls-2" d="M1198.75506,441.07471c.20438,10.57974,2.49659,98.00851,32.25548,104.66045a17.60434,17.60434,0,0,0,6.64421.16285,111.20738,111.20738,0,0,0-38.89969-104.8233Z"/><path class="cls-2" d="M1177.54,505.20942c-3.52751,9.97645-32.11337,92.63171-6.59173,109.3196a17.604,17.604,0,0,0,6.163,2.48794,111.20736,111.20736,0,0,0,.42877-111.80754Z"/><path class="cls-2" d="M1130.91353,555.43952c-6.60934,8.26375-60.76367,76.93945-42.14127,101.0858a17.6042,17.6042,0,0,0,5.00349,4.37459,111.20738,111.20738,0,0,0,37.13778-105.46039Z"/></g><g id="Coin"><ellipse class="cls-2" cx="1429.12361" cy="1914.29453" rx="339.45325" ry="337.74268"/><circle class="cls-1" cx="1425.70247" cy="1920.56662" r="339.45325"/><ellipse class="cls-2" cx="1433.36831" cy="1910.07004" rx="290.10007" ry="283.04886" transform="translate(-763.00008 972.58502) rotate(-30)"/><ellipse class="cls-1" cx="1432.62412" cy="1910.07004" rx="277.45076" ry="276.40653" transform="translate(-888.20388 1349.23422) rotate(-39.54346)"/><path class="cls-2" d="M1524.86521,2094.75831c-3.465-.08175-6.23833-1.95521-9.072-3.60424-28.26492-16.44843-56.47847-32.98607-84.78926-49.3545-10.54712-6.098-15.91026-14.931-15.7688-27.19206.11161-9.67484.04652-19.35213.00784-29.02812-.01064-2.66351.02577-5.1053,2.79327-6.6981,12.78962-7.36064,25.52354-14.81866,39.38156-22.88447,0,11.68663.16266,22.20042-.042,32.707-.24512,12.58555,5.167,21.56164,16.04078,27.71091q20.57887,11.63756,40.83279,23.85c11.60634,7.02906,22.7687,7.32577,34.4235-.02832,13.32908-8.41048,26.95519-16.35277,40.54281-24.34346,10.26452-6.03643,15.28545-14.71819,15.10307-26.77987-.26042-17.22428-.1735-34.45642-.02878-51.68345.09416-11.2088-4.66324-19.51084-14.16753-25.11923q-22.18655-13.09209-44.47777-26.00541c-10.78035-6.2547-21.21686-5.58636-31.98585.74123-50.71132,29.79663-101.74718,59.04187-152.261,89.16945-14.57721,8.69419-27.189,9.3809-41.89356.1866-25.92218-16.20838-52.65846-31.115-79.1789-46.34765-11.08949-6.36948-16.26937-15.4918-16.16577-28.36826q.39018-48.4956-.01117-96.99592c-.11307-12.58088,4.56073-21.32067,15.7007-27.65315,28.427-16.15922,56.45937-33.01631,84.70046-49.50659,3.59618-2.09984,7.49522-3.67767,11.25394-5.49734h12.70916c5.88643.9698,10.99807,3.79142,16.02172,6.79629q37.89361,22.66593,76.04515,44.89179c11.57327,6.74854,17.94769,16.08941,17.18987,30.03915-.52431,9.65193-.173,19.35531-.07768,29.03348.04672,4.73994-1.76824,7.95719-5.85271,10.42076-9.88426,5.96175-19.921,11.65438-29.95532,17.34675-6.62385,3.75765-8.59156,2.4804-8.7854-5.44214-.19634-8.02376-.02556-16.05349-.07022-24.08057-.07014-12.60771-5.17471-22.124-16.35266-28.485-13.71166-7.80291-26.84213-16.596-40.469-24.55629-10.69757-6.24914-21.2853-6.34271-32.045.049-12.3486,7.33562-24.55909,14.94472-37.3018,21.56569-13.05982,6.78573-19.46784,16.62127-18.60327,31.87213.86716,15.29661.613,30.6968.05424,46.02228-.42982,11.78809,4.70974,20.01021,14.109,25.88775,14.17739,8.86548,28.59548,17.343,42.9466,25.92665,10.54,6.30411,20.76046,6.07052,31.24177-.47942,51.54129-32.209,105.24791-60.706,157.24645-92.135,11.99764-7.25162,23.62262-7.29661,35.87592.08568,27.22953,16.40511,54.86335,32.13037,82.33526,48.12773,8.93178,5.20109,16.06908,11.74689,15.08877,23.46975q.00465,55.70619.0028,111.36388c1.15481,11.62019-5.76113,18.42975-14.62942,23.65364q-39.44734,23.23648-79.1174,46.09231c-5.29222,3.04834-10.36818,6.59732-16.9533,5.80813C1532.59335,2095.03207,1528.68114,2095.91469,1524.86521,2094.75831Z"/><path class="cls-4" d="M1518.04164,2093.37308c-3.465-.08176-6.23833-1.95521-9.072-3.60424-28.26492-16.44843-56.47847-32.98608-84.78926-49.3545-10.54712-6.098-15.91026-14.931-15.7688-27.19206.11161-9.67485.04652-19.35213.00784-29.02812-.01065-2.66352.02577-5.1053,2.79327-6.6981,12.78962-7.36064,25.52354-14.81867,39.38156-22.88447,0,11.68662.16266,22.20042-.042,32.707-.24512,12.58554,5.167,21.56164,16.04077,27.71091q20.57889,11.63756,40.8328,23.85c11.60634,7.029,22.7687,7.32577,34.4235-.02832,13.32908-8.41049,26.95519-16.35278,40.54281-24.34347,10.26452-6.03642,15.28545-14.71818,15.10307-26.77986-.26042-17.22429-.1735-34.45642-.02878-51.68345.09416-11.20881-4.66324-19.51084-14.16753-25.11923q-22.18655-13.09211-44.47777-26.00541c-10.78035-6.25471-21.21686-5.58636-31.98585.74122-50.71132,29.79664-101.74718,59.04187-152.261,89.16945-14.57721,8.69419-27.189,9.3809-41.89356.1866-25.92218-16.20837-52.65846-31.115-79.1789-46.34765-11.08949-6.36948-16.26937-15.49179-16.16577-28.36826q.39018-48.4956-.01117-96.99591c-.11307-12.58088,4.56073-21.32068,15.7007-27.65315,28.427-16.15923,56.45937-33.01632,84.70046-49.5066,3.59618-2.09984,7.49522-3.67766,11.25394-5.49733h12.70916c5.88643.9698,10.99807,3.79142,16.02172,6.7963q37.89361,22.66592,76.04515,44.89178c11.57327,6.74854,17.94769,16.08941,17.18987,30.03915-.52431,9.65193-.173,19.35531-.07768,29.03348.04672,4.73994-1.76824,7.95719-5.85272,10.42076-9.88425,5.96175-19.92095,11.65438-29.95531,17.34676-6.62385,3.75764-8.59156,2.48039-8.7854-5.44215-.19634-8.02376-.02556-16.05349-.07022-24.08057-.07014-12.60771-5.17471-22.124-16.35266-28.485-13.71166-7.80291-26.84213-16.596-40.469-24.55629-10.69757-6.24913-21.2853-6.34271-32.045.049-12.3486,7.33562-24.55909,14.94473-37.30181,21.56569-13.05981,6.78573-19.46783,16.62127-18.60326,31.87214.86716,15.2966.613,30.69679.05424,46.02228-.42982,11.78808,4.70974,20.0102,14.109,25.88774,14.17739,8.86549,28.59548,17.343,42.9466,25.92665,10.54,6.30411,20.76046,6.07052,31.24177-.47942,51.54129-32.209,105.24791-60.706,157.24645-92.135,11.99764-7.25163,23.62262-7.29661,35.87592.08567,27.22953,16.40511,54.86335,32.13037,82.33526,48.12773,8.93177,5.2011,16.06908,11.7469,15.08876,23.46975q.00467,55.70619.00281,111.36388c1.15481,11.6202-5.76113,18.42975-14.62942,23.65364q-39.44734,23.2365-79.1174,46.09231c-5.29223,3.04834-10.36818,6.59733-16.9533,5.80813C1525.76978,2093.64683,1521.85757,2094.52945,1518.04164,2093.37308Z"/></g></g></g></svg>