<svg xmlns="http://www.w3.org/2000/svg" viewBox="0 0 1595.93413 2576.03337"><defs><style>.cls-1{fill:#a64242;}.cls-2{fill:#f7f7f7;}.cls-3{fill:#e8e8e8;}.cls-4{fill:#7cacc8;}.cls-5{fill:#89b4ce;}</style></defs><g id="Layer_2" data-name="Layer 2"><g id="Robot"><g id="Layer_13" data-name="Layer 13"><rect class="cls-1" x="591.83321" y="542.23962" width="362.79559" height="137.42257" rx="55.90184"/><rect class="cls-2" x="556.55008" y="-29.61938" width="22.84594" height="639.13339" rx="11.42296" transform="translate(-69.44234 270.85659) rotate(-25.32857)"/><rect class="cls-2" x="977.9793" y="-29.61938" width="22.84594" height="639.13339" rx="11.42296" transform="translate(1759.65063 975.2967) rotate(-154.67142)"/><rect class="cls-1" y="963.66884" width="175.90089" height="324.31727" rx="59.68304"/><rect class="cls-1" x="1420.03324" y="963.66884" width="175.90089" height="324.31727" rx="59.68304"/></g><g id="Layer_10" data-name="Layer 10"><rect class="cls-3" x="131.92567" y="641.84104" width="1339.412" height="964.97276" rx="122.10343"/><rect class="cls-4" x="210.71461" y="730.96662" width="1172.67261" height="785.60103" rx="103.08671"/><path class="cls-5" d="M216.21151,1264.1662c-.33729-50.13687-2.17049-90.7197-3.6646-117.26726-3.04459-54.08621-4.45908-210.76717,0-322.485.31045-7.77878,2.39953-36.96877,25.65221-62.29823,24.286-26.4553,54.85809-30.39792,62.29824-31.14912q257.43783.91609,514.87657,1.8323H923.47968a482.31932,482.31932,0,0,1-3.6646,53.13673c-23.879,191.3739-156.79951,315.649-179.56549,336.93357C535.3137,1314.47418,248.07279,1269.6517,216.21151,1264.1662Z"/></g><g id="Layer_11" data-name="Layer 11"><path class="cls-1" d="M994.93942,1828.51489H611.98852c8.40192-9.49343,46.82925-54.95292,43.97522-122.76416-2.46931-58.6598-34.2778-97.18733-43.97522-108.10576h382.9509c-6.30569,4.42329-57.008,41.30372-60.46593,108.10576C930.553,1781.47428,990.95989,1825.70628,994.93942,1828.51489Z"/></g><g id="Layer_12" data-name="Layer 12"><path class="cls-3" d="M892.33057,2570.59678c-12.7599,2.82965-68.16822,13.96682-130.09337-7.3292-69.83769-24.01719-76.92175-64.85388-155.74558-131.92567-104.20675-88.67022-152.85756-69.23154-218.04382-144.75178-48.54882-56.24528-67.023-119.69519-75.12434-162.35322,0-163.32284,132.399-295.722,295.72157-295.722h396.16708c163.32262,0,295.72157,132.39918,295.72157,295.722-1.68736,41.74725-10.52857,104.61449-49.47213,164.18552-32.569,49.82016-55.86907,50.951-152.081,128.26107C975.65642,2516.10081,963.74915,2554.75941,892.33057,2570.59678Z"/><path class="cls-2" d="M630.4033,2314.50239c-34.58054-23.13944-26.76122-24.92625-85.72689-61.33-76.30027-47.10555-116.32911-46.2521-142.395-90.381-15.1467-25.6431-17.71244-53.15883-17.748-71.29093,0-84.52574,61.6891-153.04749,137.7859-153.04749H706.90484c76.09681,0,137.7859,68.52175,137.7859,153.04749v105.46127c-.117,13.09839-1.92049,68.62075-39.92639,107.85688C761.86312,2349.10929,690.31868,2354.59472,630.4033,2314.50239Z"/></g></g></g></svg>