<svg xmlns="http://www.w3.org/2000/svg" viewBox="0 0 1242.28483 1244.36107"><defs><style>.cls-1{fill:#cc9a32;}.cls-2{fill:#ffc13f;}.cls-3{fill:#b3872c;}.cls-4{fill:#ffce69;}</style></defs><g id="Layer_2" data-name="Layer 2"><g id="Token"><g id="Token-2" data-name="Token"><ellipse class="cls-1" cx="624.25678" cy="614.91369" rx="618.02805" ry="614.91369"/><circle class="cls-2" cx="618.02805" cy="626.33302" r="618.02805"/><circle class="cls-3" cx="626.33302" cy="606.95476" r="522.52092"/><circle class="cls-1" cx="637.40631" cy="615.25973" r="522.52092"/><circle class="cls-3" cx="627.49776" cy="595.68934" r="431.55666"/><circle class="cls-2" cx="620.88676" cy="604.55453" r="431.55666"/><g id="Layer_2-2" data-name="Layer 2"><g id="Layer_18_copy" data-name="Layer 18 copy"><path class="cls-1" d="M822.01968,877.41545q-206.86887-.54586-413.73347-1.00111c-.18646-64.92422,18.46858-100.53427,35.93281-121.1517,23.126-27.29718,44.97634-29.34916,70.99256-57.61775,31.33048-34.04255,41.65815-77.00569,45.48067-108.22658-31.44067,5.57536-57.54158-19.50127-57.60942-44.6837-.06353-23.35385,22.26572-47.1808,51.53234-45.88376-46.19281-34.52081-56.95588-101.778-24.04-150.223s97.04619-59.73292,143.239-25.2121c27.062,20.224,43.12152,52.93,43.1023,87.77985a132.8603,132.8603,0,0,1-5.72111,35.5481,105.38936,105.38936,0,0,1-35.30969,48.83877c30.13965-3.3767,54.859,22.126,53.96062,49.15242-.856,25.80689-24.93135,48.82987-53.63857,45.6854.77554,30.02055,6.67886,73.91579,36.1235,106.73681,27.83,31.02218,56.06685,29.1631,81.43466,59.082C809.81464,775.16563,827.19846,809.73761,822.01968,877.41545Z"/></g></g><g id="Layer_2-3" data-name="Layer 2"><g id="Layer_18_copy-2" data-name="Layer 18 copy"><path class="cls-4" d="M809.01968,877.41545q-206.86887-.54586-413.73347-1.00111c-.18646-64.92422,18.46858-100.53427,35.93281-121.1517,23.126-27.29718,44.97634-29.34916,70.99256-57.61775,31.33048-34.04255,41.65815-77.00569,45.48067-108.22658-31.44067,5.57536-57.54158-19.50127-57.60942-44.6837-.06353-23.35385,22.26572-47.1808,51.53234-45.88376-46.19281-34.52081-56.95588-101.778-24.04-150.223s97.04619-59.73292,143.239-25.2121c27.062,20.224,43.12152,52.93,43.1023,87.77985a132.8603,132.8603,0,0,1-5.72111,35.5481,105.38936,105.38936,0,0,1-35.30969,48.83877c30.13965-3.3767,54.859,22.126,53.96062,49.15242-.856,25.80689-24.93135,48.82987-53.63857,45.6854.77554,30.02055,6.67886,73.91579,36.1235,106.73681,27.83,31.02218,56.06685,29.1631,81.43466,59.082C796.81464,775.16563,814.19846,809.73761,809.01968,877.41545Z"/></g></g></g></g></g></svg>