<svg xmlns="http://www.w3.org/2000/svg" viewBox="0 0 1976.03002 1661.73081"><defs><style>.cls-1{fill:#e8e8e8;}</style></defs><g id="Layer_2" data-name="Layer 2"><g id="Layer_62" data-name="Layer 62"><path class="cls-1" d="M1976.02805,109.66024c-3.96056,43.144-17.80466,92.92734-28.44834,143.22009q-137.579,650.07729-276.209,1299.93213c-5.37442,25.26658-12.01892,50.12381-26.31033,72.11809-19.67541,30.28045-46.88464,41.93864-82.00221,34.73537a184.18222,184.18222,0,0,1-74.04-33.00713c-139.2709-103.65367-278.94632-206.76521-417.93773-310.791-14.156-10.59488-21.96914-11.44164-35.20258,1.68267-62.9972,62.47707-127.12418,123.81819-191.065,185.33932-24.84535,23.90546-52.5421,43.2985-86.63824,52.14292-12.94,3.35674-19.16073,3.0149-17.75145-14.14095q17.87595-217.6138,33.80344-435.38414c.98261-13.38323,8.336-20.14715,16.71538-27.80213q399.78838-365.2195,799.477-730.548c11.74609-10.73645,24.03867-21.08954,34.39675-33.073,11.5962-13.41608,6.74688-24.03979-10.87039-26.46091-16.78587-2.30681-31.11284,4.37477-44.83664,13.01687Q1054.5153,624.68822,540.09982,949.018c-13.40889,8.46458-24.45479,10.25713-39.70879,5.54767C351.39775,908.56608,202.14,863.42329,52.985,817.94623A134.65067,134.65067,0,0,1,33.933,810.587c-37.69983-18.13513-44.59615-48.98779-17.62411-81.00911,18.19216-21.59772,43.48952-32.50457,68.98815-42.38472Q316.11717,597.75566,547.09376,508.722q641.958-247.74481,1283.93974-495.42782c4.94546-1.90833,9.83326-3.98544,14.84553-5.69877C1920.63108-17.95662,1976.41242,22.17936,1976.02805,109.66024Z"/></g></g></svg>