<svg xmlns="http://www.w3.org/2000/svg" viewBox="0 0 1403.8933 1121.16216"><defs><style>.cls-1{fill:#a7a7a7;}</style></defs><g id="Layer_2" data-name="Layer 2"><g id="Warning"><path class="cls-1" d="M1392.55308,1015.1311Q1069.57554,523.0151,746.59751,30.89922c-27.332-41.64563-88.57324-41.09179-115.14746,1.04126Q321.05772,524.05621,10.66685,1016.17242c-28.75537,45.59039,4.00683,104.98974,57.9082,104.98974H1335.31431C1389.77378,1121.16216,1422.43443,1060.66064,1392.55308,1015.1311Zm-747.56543-623.214H735.18a28.93273,28.93273,0,0,1,28.86621,30.89038l-21.42773,315.882a28.932,28.932,0,0,1-28.86572,26.97424h-47.3379a28.932,28.932,0,0,1-28.86572-26.97424l-21.42773-315.882A28.93273,28.93273,0,0,1,644.98765,391.91705Zm101.1167,557.34863q-22.50294,21.679-56.02051,21.67236-33.54345,0-56.02148-21.67236-22.50294-21.65918-22.49024-52.74951,0-31.07154,22.082-51.93213,22.08107-20.855,56.42969-20.85449,34.34911,0,56.42969,20.85449,22.08105,20.85424,22.08105,51.93213Q768.59458,927.606,746.10435,949.26568Z"/></g></g></svg>