<svg xmlns="http://www.w3.org/2000/svg" viewBox="0 0 625.91273 701.85835"><defs><style>.cls-1,.cls-4{fill:#f7f7f7;}.cls-2{fill:#d1d1d1;}.cls-11,.cls-3{fill:none;}.cls-3{stroke:#0d0d0d;stroke-width:10px;}.cls-3,.cls-4,.cls-6{stroke-miterlimit:10;}.cls-4,.cls-6{stroke:#333;}.cls-4{stroke-width:2.39739px;}.cls-5{fill:#fcfcfc;}.cls-6{fill:#f0f0f0;stroke-width:2.9306px;}.cls-7{fill:#ffc13f;}.cls-8{fill:#cc9a33;}.cls-9{fill:#8c2d2d;}.cls-10{fill:#681919;}.cls-11{stroke:#ffc13f;stroke-linejoin:round;stroke-width:2.6961px;}.cls-12{fill:#a64242;}.cls-13{fill:#cc9a32;}</style></defs><g id="Layer_2" data-name="Layer 2"><g id="White"><g id="Layer_3" data-name="Layer 3"><path class="cls-1" d="M382.77735,225.04931q-3.852,1.65534-7.75931,3.12121a15.437,15.437,0,0,1-20.692-14.20765c-.02211-.91807-.02231-1.4239-.02231-1.4239,0-7.38631,5.96736-92.28021,13.32847-92.28021h26.11122a13.35134,13.35134,0,0,0,13.32847-13.3741V60.53089a13.35134,13.35134,0,0,0-13.32847-13.3741H367.63222a13.35134,13.35134,0,0,1-13.32847-13.3741V14.30928A13.35134,13.35134,0,0,0,340.97516.93518L282.19963.93573a13.35134,13.35134,0,0,0-13.32834,13.3741V33.78325a13.35134,13.35134,0,0,1-13.32847,13.3741H229.43271a13.35134,13.35134,0,0,0-13.32847,13.3741v46.35377a13.35134,13.35134,0,0,0,13.32847,13.3741h26.11011c7.36111,0,13.32847,84.8939,13.32847,92.28021l.00021.003c.77249,11.12254-10.19185,19.55307-20.60537,15.6638q-3.96176-1.47964-7.86844-3.15707"/><path class="cls-2" d="M403.18128,108.45892a100.40606,100.40606,0,0,0-32.10564-5.23763c-15.60689.16386-28.949,9.94653-32.01045,23.50626-2.862,12.67677-1.7754,46.033-1.03046,70.5637,0-.4718,12.92836,0,12.92836,0s0-70.621,21.49881-70.24368c12.51656.21967,22.204,2.00458,29.39759-3.86319C407.0911,118.917,403.18128,108.45892,403.18128,108.45892Z"/><path class="cls-1" d="M221.99075,70.82623a100.40606,100.40606,0,0,0,32.10564,5.23763c15.6069-.16386,28.949-9.94653,32.01045-23.50626,2.86205-12.67677,2.61287-22.88722,1.86793-47.41792,0,.4718-12.92836,0-12.92836,0s-.83747,47.47523-22.33628,47.0979c-12.51656-.21968-22.204-2.00458-29.39759,3.86319C218.08093,60.36817,221.99075,70.82623,221.99075,70.82623Z"/><path class="cls-3" d="M384.13833,229.11414q-3.852,1.65533-7.75931,3.12121a15.437,15.437,0,0,1-20.692-14.20765c-.02211-.91808-.02231-1.4239-.02231-1.4239,0-7.38632,5.96736-92.28022,13.32847-92.28022h26.11122a13.35134,13.35134,0,0,0,13.32847-13.3741V64.59571a13.35134,13.35134,0,0,0-13.32847-13.3741H368.9932a13.35134,13.35134,0,0,1-13.32847-13.3741V18.3741A13.35135,13.35135,0,0,0,342.33613,5l-58.77552.00056a13.35134,13.35134,0,0,0-13.32834,13.3741V37.84807a13.35134,13.35134,0,0,1-13.32847,13.3741H230.79369a13.35134,13.35134,0,0,0-13.32847,13.3741V110.95a13.35134,13.35134,0,0,0,13.32847,13.3741H256.9038c7.36111,0,13.32847,84.8939,13.32847,92.28022l.00021.003c.77249,11.12254-10.19185,19.55307-20.60538,15.6638q-3.96174-1.47964-7.86843-3.15706"/><path class="cls-4" d="M204.52271,462.78231c-15.31241,0-29.58508-7.899-38.31825-21.04509-19.26554-28.999-49.14369-82.6359-41.08508-126.478,7.23635-39.372,47.72945-38.53031,77.44944-32.20928,19.212,4.08624,33.82547,20.458,36.59929,40.74447l15.12749,83.48453C258.29874,436.57289,232.83427,462.78231,204.52271,462.78231Zm260.602-22.85738a44.93217,44.93217,0,0,1-37.33377,20.50379c-27.58149,0-52.39229-25.53528-48.4911-54.07575l14.73894-81.33716c2.70169-19.76471,16.93943-35.71532,35.657-39.69646,28.95557-6.15844,68.40817-6.97846,75.45735,31.38081C513.00335,359.41458,483.89574,411.67183,465.12467,439.92493Zm7.027-271.79036q-3.86421-.14026-7.77331-.14077H167.54414q-3.90846,0-7.77331.14077c-111.23568,4.03585-181.93443,98.21-139.10874,180.98327l134.698,260.34552H476.56235l134.698-260.34552C654.086,266.34456,583.38729,172.17042,472.15162,168.13457Z"/><path class="cls-5" d="M57.06,213.92632a867.67969,867.67969,0,0,0,75.67849,238.3966A907.74876,907.74876,0,0,0,196.27971,562.782l-49.83028,9.49274Q91.61215,467.72639,36.7774,363.178c-7.48967-12.11889-20.78952-37.83032-18.44426-70.82969a114.57445,114.57445,0,0,1,10.47545-40.09411A124.977,124.977,0,0,1,57.06,213.92632Z"/><path class="cls-2" d="M504.38159,175.637c62.53061,45.79866,73.46409,91.80224,76.13163,109.01119,6.99928,45.14389-13.694,81.1278-55.36783,151.253A861.209,861.209,0,0,1,439.01651,555.8135a214.64955,214.64955,0,0,1,24.58784,1.41312,212.03369,212.03369,0,0,1,28.288,5.22322C623.8513,295.25609,636.70713,344.851,615.18781,256.05813c-1.93956-2.99345-4.73617-7.14224-8.33822-11.945-6.12846-8.169-19.36979-25.82294-39.409-40.54209C546.17422,187.95093,523.02168,179.87223,504.38159,175.637Z"/><path class="cls-3" d="M469.14676,165.47233q-3.86419-.14025-7.77331-.14077H164.53928q-3.90846,0-7.77331.14077C45.5303,169.50818-25.16845,263.68232,17.65723,346.4556l134.698,260.34552H473.55749L608.2555,346.4556C651.08119,263.68232,580.38244,169.50818,469.14676,165.47233ZM201.50124,460.02063c-15.29577,0-29.55292-7.8904-38.2766-21.02223-19.2446-28.96749-49.09028-82.54608-41.04043-126.34055,7.22849-39.3292,47.67758-38.48844,77.36527-32.17428,19.19116,4.0818,33.78871,20.43573,36.55951,40.70019L251.22,404.57756C255.21883,433.83969,229.782,460.02063,201.50124,460.02063Zm260.76176-22.32a45.21882,45.21882,0,0,1-37.57194,20.63459c-27.75745,0-52.72654-25.69818-48.80045-54.42072l14.833-81.85606c2.71893-19.89079,17.0475-35.94316,35.88448-39.94969,29.14029-6.19773,68.84458-7.023,75.93873,31.581C510.44712,356.67665,481.15381,409.26727,462.263,437.70061Z"/><path class="cls-6" d="M529.03205,622.92525c10.00119-40.92911-37.28907-56.93463-37.28907-56.93463s-86.71-15.42518-173.24018-13.95119c-86.53014-1.474-173.24057,13.95119-173.24057,13.95119S97.972,581.99614,107.97356,622.92525c0,2.85589-45.35378,15.22978-27.67749,74.24415H556.70953C574.38543,638.155,529.03205,625.78114,529.03205,622.92525Z"/><path class="cls-2" d="M89.73676,661.55492c29.60816-22.01226,173.71-22.57987,220.29475-22.61829,52.458-.04328,216.32044.37245,239.44764,22.91987,12.79549,12.47508,11.26982,24.72908,11.26982,24.72935a25.39634,25.39634,0,0,1-4.03989,10.58354L81.947,696.68965c-2.52178-2.38805-5.89843-6.28664-6.84158-11.2879C75.10541,685.40148,72.9619,674.02546,89.73676,661.55492Z"/><path class="cls-3" d="M530.04421,622.6142c10.00119-40.92911-37.28908-56.93463-37.28908-56.93463s-86.71-15.42518-173.24017-13.95119c-86.53014-1.474-173.24057,13.95119-173.24057,13.95119s-47.29026,16.00552-37.28867,56.93463c0,2.8559-45.35378,15.22978-27.67749,74.24415H557.72169C575.39759,637.844,530.04421,625.4701,530.04421,622.6142Z"/></g><rect class="cls-7" x="301.13548" y="451.40635" width="29.16982" height="23.32467"/><path class="cls-8" d="M330.44783,474.432a40.21011,40.21011,0,0,0-4.336-.44856c-1.413-.06906-2.72767-.05855-3.926,0V451.40635h8.262Z"/><path class="cls-9" d="M442.56393,159.54153a217.09481,217.09481,0,0,1,63.44254,4.8802Q427.31041,304.662,348.61421,444.90236h-65.339Q362.91955,302.22188,442.56393,159.54153Z"/><path class="cls-10" d="M348.5394,445.12669q1.264-2.43122,2.528-4.86231-17.06166-28.34867-34.12339-56.69733-1.31245,2.6248-2.62488,5.24975Q331.42927,416.97168,348.5394,445.12669Z"/><rect class="cls-11" x="279.46248" y="441.3887" width="73.11388" height="20.18481" rx="3.182"/><path class="cls-12" d="M103.39034,168.08188a179.05366,179.05366,0,0,1,68.32273-8.54035l176.82637,285.4356q-32.78181.18675-65.56333.37367Q193.18323,306.71626,103.39034,168.08188Z"/><ellipse class="cls-13" cx="315.49611" cy="538.16367" rx="66.7594" ry="66.42299"/><circle class="cls-7" cx="314.82328" cy="539.39718" r="66.7594"/><circle class="cls-13" cx="316.91652" cy="538.20105" r="56.44272"/><circle class="cls-7" cx="315.19708" cy="537.07967" r="41.11721"/></g></g></svg>